<?xml version="1.0" standalone="no"?>
<!DOCTYPE svg PUBLIC "-//W3C//DTD SVG 20010904//EN"
 "http://www.w3.org/TR/2001/REC-SVG-20010904/DTD/svg10.dtd">
<svg version="1.0" xmlns="http://www.w3.org/2000/svg"
 width="1024.000000pt" height="512.000000pt" viewBox="0 0 1024.000000 512.000000"
 preserveAspectRatio="xMidYMid meet">

<g transform="translate(0.000000,512.000000) scale(0.100000,-0.100000)"
fill="#000000" stroke="none">
<path d="M0 2560 l0 -2560 5120 0 5120 0 0 2560 0 2560 -5120 0 -5120 0 0
-2560z m1450 2000 c0 -297 -1 -540 -3 -540 -1 0 -34 9 -72 20 -38 11 -79 20
-90 19 -11 -1 -2 -5 19 -10 21 -5 63 -16 92 -25 51 -15 54 -17 54 -48 0 -26
-10 -42 -47 -78 -87 -83 -213 -217 -213 -226 0 -15 38 -22 110 -21 70 0 70 1
-22 38 -16 6 -28 16 -28 23 1 7 45 60 100 118 l99 105 1 -142 0 -143 -27 -1
-28 -2 29 -4 29 -5 -6 -261 c-4 -144 -14 -325 -22 -402 -11 -90 -15 -181 -11
-255 3 -79 2 -106 -4 -85 -8 25 -69 315 -84 395 -17 98 -86 334 -141 485 -61
166 -69 183 -110 221 -50 45 -53 54 -26 71 10 7 33 37 51 68 30 53 32 59 25
125 l-7 70 43 1 c24 1 35 4 24 6 -36 9 -56 33 -44 55 19 36 2 29 -24 -9 -35
-51 -157 -178 -184 -192 -37 -19 -134 -10 -178 16 -16 9 -20 26 -25 100 l-5
88 -112 0 c-81 0 -114 -4 -118 -12 -5 -15 -5 -15 108 -3 49 5 94 7 101 4 10
-4 14 -61 19 -230 4 -124 10 -230 13 -236 4 -6 42 -7 106 -3 l100 7 -6 -93
c-4 -52 -11 -143 -16 -204 -6 -60 -17 -193 -26 -295 -8 -101 -17 -187 -19
-191 -3 -3 -9 -75 -15 -160 -26 -392 -78 -793 -161 -1230 -10 -58 -24 -141
-29 -185 -20 -177 -73 -521 -109 -704 -36 -184 -63 -359 -77 -512 l-7 -68
-228 0 -229 0 0 173 0 172 128 2 c71 0 138 3 149 7 31 10 42 45 68 220 14 88
37 230 52 314 20 117 24 157 15 175 -6 12 -13 39 -17 60 -5 32 -1 46 24 86 38
59 39 90 2 155 -15 28 -34 69 -40 91 -26 84 -32 94 -70 106 -52 17 -69 35 -76
82 -11 69 -25 106 -45 112 -10 3 -21 13 -24 21 -14 35 -28 266 -23 358 6 89 4
106 -20 177 l-26 78 23 106 23 106 66 67 c36 37 89 105 116 152 l50 84 -1 105
c0 75 -7 131 -23 193 -27 106 -109 302 -152 364 -30 44 -33 46 -71 41 -35 -5
-38 -4 -21 9 16 12 14 13 -13 3 -17 -5 -44 -24 -60 -42 -16 -17 -20 -25 -9
-16 53 42 58 36 10 -11 l-35 -33 0 781 0 782 715 0 715 0 0 -540z m1470 91 l0
-449 -47 -28 c-26 -15 -54 -27 -63 -27 -8 0 -36 -19 -62 -43 -26 -24 -65 -51
-87 -60 -23 -9 -38 -20 -36 -25 3 -5 -30 -35 -75 -68 -78 -58 -82 -60 -129
-54 -28 3 -57 1 -69 -6 -27 -15 -30 3 -6 37 11 17 2 12 -35 -15 -28 -21 -74
-51 -103 -65 -47 -24 -58 -26 -97 -17 -65 15 -61 4 6 -14 l58 -15 -47 -1 c-26
-1 -58 -6 -71 -12 -28 -13 -112 -137 -151 -224 -15 -33 -47 -80 -70 -105 -81
-84 -90 -132 -60 -321 12 -75 13 -103 4 -119 -11 -21 -11 -21 15 -4 39 25 286
31 415 10 108 -18 120 -27 120 -95 0 -25 3 -56 6 -68 6 -21 4 -21 -123 -21
-109 1 -156 -5 -316 -37 -104 -20 -190 -35 -193 -33 -2 3 3 26 12 52 9 26 14
49 11 52 -3 3 -13 -23 -23 -57 l-19 -62 -105 -53 c-57 -30 -106 -54 -107 -54
-2 0 -3 333 -3 741 0 457 4 738 9 734 6 -3 6 7 0 27 -14 51 -11 189 7 249 9
30 36 91 60 137 25 45 43 82 40 82 -11 0 -74 -107 -94 -160 l-21 -55 0 348 -1
347 725 0 725 0 0 -449z m662 438 c2 -6 21 -13 43 -15 121 -11 281 -73 372
-145 35 -28 67 -49 69 -46 2 2 -16 23 -42 47 -75 69 -217 127 -389 158 -35 7
73 10 348 11 l397 1 0 -395 c0 -217 -2 -395 -4 -395 -3 0 -12 22 -21 50 -23
69 -33 70 -20 2 14 -67 11 -82 -19 -83 -108 -5 -100 -8 -108 39 -8 46 -43 112
-60 112 -5 0 0 -15 11 -34 31 -50 29 -138 -4 -182 -34 -45 -62 -59 -81 -43
-20 17 -40 65 -54 136 -7 32 -23 85 -36 118 -12 33 -25 72 -29 88 -9 44 -40
34 -105 -32 -64 -65 -110 -152 -138 -259 -16 -62 -20 -67 -42 -64 -36 5 -101
54 -122 93 -33 62 -21 173 28 244 29 43 27 55 -4 22 -32 -34 -62 -122 -62
-181 0 -45 -3 -54 -20 -59 -11 -3 -20 -1 -20 4 0 5 -6 9 -13 9 -8 0 -24 11
-36 24 -21 22 -23 32 -19 88 6 71 15 97 55 148 l27 35 -33 -30 c-79 -72 -98
-181 -47 -268 37 -63 27 -75 -43 -52 -32 10 -72 35 -106 67 -66 60 -77 40 -15
-25 35 -36 40 -46 34 -72 -4 -16 -7 -38 -6 -47 1 -22 -17 -23 -46 -2 -13 9
-29 13 -37 10 -8 -3 -15 -1 -15 4 0 5 -8 11 -17 14 -10 4 -28 22 -40 41 -28
42 -31 121 -8 185 19 55 19 57 -5 35 -11 -10 -20 -24 -20 -32 0 -7 -5 -13 -10
-13 -18 0 -32 53 -26 100 4 31 3 40 -4 30 -16 -25 -11 -108 9 -148 10 -20 21
-64 25 -97 10 -88 21 -108 87 -160 33 -26 68 -63 78 -83 11 -21 36 -53 56 -72
l37 -35 -6 40 c-4 22 -10 50 -13 63 -4 16 -1 22 11 22 20 0 20 -3 -5 74 -32
97 -28 100 82 60 70 -25 95 -30 101 -21 11 17 10 27 -2 27 -5 0 -10 4 -10 10
0 17 47 -7 105 -55 58 -47 124 -85 149 -85 11 0 12 8 6 35 -11 47 9 60 115 79
92 16 65 20 -44 6 -41 -6 -76 -8 -78 -6 -8 8 22 116 48 174 41 92 65 122 98
122 41 0 66 -34 96 -133 26 -82 27 -94 19 -178 l-10 -89 33 0 c31 0 33 -2 33
-33 0 -42 -26 -132 -48 -165 l-17 -25 33 6 c19 4 32 2 32 -3 0 -29 -44 -98
-76 -118 l-35 -23 25 -20 c37 -29 92 -50 113 -42 10 4 34 16 53 29 19 12 63
27 98 34 75 15 85 25 33 34 -42 6 -89 38 -100 69 -7 18 -9 18 -23 3 -16 -16
-60 -36 -79 -36 -5 0 -9 7 -9 15 0 8 9 15 19 15 11 0 23 5 27 12 5 7 2 9 -8 5
-23 -8 -28 1 -16 34 13 36 66 68 79 47 7 -11 11 -10 19 2 5 8 10 20 10 26 0 6
11 21 24 33 24 23 25 23 19 2 -14 -52 55 0 108 82 l39 60 0 -773 c0 -446 -4
-770 -9 -764 -5 5 -14 26 -21 47 -7 21 -14 37 -16 35 -2 -2 8 -39 21 -81 l25
-78 0 -449 c0 -286 -4 -450 -10 -450 -6 0 -6 -9 0 -26 14 -36 13 -104 -2 -104
-9 0 -9 -3 0 -12 9 -9 12 -99 12 -343 0 -214 -4 -325 -10 -315 -31 49 -153
375 -205 550 -7 25 -36 110 -64 189 -47 136 -49 144 -34 167 9 14 13 27 9 31
-3 3 -6 1 -6 -5 0 -7 -6 -12 -14 -12 -19 0 -38 75 -34 140 l3 55 23 -38 c13
-20 28 -58 32 -85 l9 -47 -4 59 c-3 50 -11 69 -57 138 l-53 80 -11 -109 c-15
-136 -29 -189 -59 -219 -30 -30 -56 -23 -101 29 -40 47 -64 118 -95 279 -17
89 -21 153 -23 322 0 116 2 267 6 336 9 160 -8 115 -22 -59 -13 -158 -13 -282
0 -412 27 -266 70 -420 135 -486 91 -93 141 -31 170 210 4 26 11 47 17 47 14
0 3 -136 -18 -216 -24 -94 -84 -140 -142 -110 -83 43 -135 155 -172 374 -23
129 -28 446 -10 633 12 134 19 221 20 237 0 6 10 12 21 12 20 0 21 -4 16 -52
l-5 -53 12 48 c6 27 20 55 31 64 18 13 16 14 -30 11 l-50 -3 -12 -80 c-33
-218 -43 -516 -22 -705 6 -56 9 -103 7 -105 -2 -3 -42 0 -89 5 -46 5 -111 12
-144 16 -78 7 -165 33 -165 49 0 7 9 41 20 76 10 35 44 210 74 389 64 375 66
389 76 395 4 2 29 -4 56 -14 27 -10 62 -21 78 -25 24 -6 28 -4 22 10 -7 17 20
65 74 130 14 17 34 42 44 55 82 103 181 208 199 209 13 0 177 -79 177 -86 0
-3 -16 -32 -35 -64 -39 -64 -71 -135 -57 -126 5 3 30 42 56 86 26 45 53 83 60
86 21 8 95 -15 117 -37 14 -14 19 -15 19 -5 0 9 7 12 20 9 14 -4 20 0 20 10 0
9 -6 13 -17 11 -21 -6 -155 47 -273 106 -49 24 -89 39 -100 35 -22 -7 -216
-233 -248 -290 -8 -14 -12 -16 -12 -5 0 10 -9 5 -25 -15 -13 -16 -27 -26 -31
-22 -4 4 -8 80 -8 169 -1 123 2 162 12 166 9 3 10 8 2 17 -15 18 2 58 39 86
20 16 33 38 39 64 6 31 13 41 32 45 14 3 51 18 83 33 32 15 59 27 61 27 2 0
-1 -21 -5 -47 -5 -27 -7 -67 -3 -90 8 -53 -12 -113 -71 -217 -25 -43 -43 -81
-41 -83 2 -3 10 6 16 19 13 23 50 62 127 132 l43 38 95 -47 c53 -26 98 -45
101 -42 7 6 -178 107 -197 107 -7 0 -31 -17 -53 -37 -26 -26 -36 -31 -31 -18
31 79 35 100 29 144 -9 71 11 156 43 176 30 20 45 15 117 -39 26 -21 46 -32
44 -24 -2 7 -26 28 -54 45 -27 18 -55 38 -61 43 -9 7 -41 -4 -112 -40 -54 -27
-112 -50 -128 -50 -16 0 -68 20 -115 43 -65 33 -88 41 -92 30 -3 -8 2 -13 14
-13 10 0 46 -17 79 -37 55 -34 61 -41 61 -72 0 -24 -9 -44 -34 -72 -41 -44
-53 -83 -62 -201 l-7 -88 -32 73 c-43 99 -112 227 -138 255 -11 12 -30 22 -41
21 -20 -1 -20 -1 2 -7 29 -9 51 -42 117 -179 54 -114 91 -221 83 -245 -3 -7
-11 12 -18 42 -24 101 -132 308 -174 335 -31 19 -86 8 -86 -18 0 -19 1 -19 18
-4 20 19 52 23 52 7 0 -5 6 -10 13 -10 19 0 121 -193 155 -295 29 -87 62 -197
62 -209 0 -3 -11 -6 -24 -6 -28 0 -105 40 -161 83 l-40 32 30 -37 c17 -20 36
-37 43 -37 17 -1 15 -23 -12 -147 -13 -60 -31 -156 -40 -214 -20 -130 -68
-383 -106 -555 -33 -152 -89 -291 -133 -335 -41 -40 -88 -41 -115 -2 -21 28
-43 97 -35 105 2 3 6 36 7 74 2 37 7 77 11 87 6 14 5 17 -3 12 -12 -7 -15 275
-13 899 1 99 1 633 1 1188 l0 1007 319 0 c227 0 320 -3 323 -11z m2190 1 c-97
-11 -233 -76 -316 -151 l-58 -54 78 0 c73 0 79 -2 82 -22 4 -28 -106 -271
-129 -286 -17 -10 -17 -12 1 -46 10 -20 22 -53 28 -74 9 -34 8 -39 -12 -52
-12 -8 -32 -16 -45 -17 -20 -3 -25 3 -36 47 -14 52 -52 95 -84 95 -26 0 -64
-32 -86 -74 -11 -20 -24 -36 -30 -36 -16 0 -85 60 -85 74 0 17 113 136 130
136 7 0 11 2 8 5 -3 3 -56 10 -119 16 l-114 10 -45 43 c-94 90 -209 174 -305
223 -104 53 -205 89 -205 72 0 -5 5 -9 11 -9 5 0 7 -4 4 -10 -8 -12 -16 -12
-35 0 -13 9 -13 11 0 20 10 6 11 10 3 10 -9 0 -13 16 -13 45 l0 45 723 -1
c402 -1 690 -5 649 -9z m1189 -12 c0 -13 3 -65 5 -116 6 -106 0 -113 -62 -87
-67 28 -148 29 -254 4 -52 -12 -106 -22 -120 -22 -14 0 -65 15 -115 32 -83 30
-178 54 -265 66 -29 5 -31 4 -13 -4 27 -12 60 -75 69 -129 8 -50 -10 -106 -42
-131 -13 -10 -24 -21 -24 -24 0 -2 27 -7 60 -11 33 -4 62 -11 65 -17 4 -5 -2
-24 -13 -42 -11 -17 -23 -50 -26 -72 -10 -57 -16 -75 -26 -75 -24 0 -134 -89
-172 -138 -66 -87 -74 -103 -93 -183 -17 -72 -17 -78 0 -130 13 -38 31 -66 61
-94 24 -23 44 -45 44 -49 0 -5 -20 -38 -44 -75 -24 -36 -62 -99 -85 -138 -23
-40 -44 -73 -46 -73 -3 0 -5 310 -5 690 l0 690 33 9 32 9 -32 1 -33 1 0 65 0
65 550 0 550 0 1 -22z m339 -33 c0 -65 -7 -69 -114 -57 -88 9 -100 25 -61 76
27 36 28 36 101 36 l74 0 0 -55z m760 35 c-31 -11 -39 -16 -20 -12 47 9 186 9
230 -1 27 -6 31 -5 18 3 -10 6 -53 15 -95 19 -56 6 16 9 250 10 l327 1 0 -500
c0 -275 -2 -500 -4 -500 -2 0 -18 23 -34 52 -29 49 -29 53 -16 91 18 51 17 69
-2 35 -8 -16 -16 -28 -17 -28 -2 0 -1 28 1 63 3 49 1 66 -12 76 -14 12 -16 10
-17 -15 0 -25 -2 -26 -9 -9 -5 13 -3 28 7 43 19 31 9 40 -17 17 -11 -10 -22
-16 -25 -13 -10 10 16 64 36 77 31 19 47 -2 63 -85 14 -69 14 -69 15 -21 2 87
-38 145 -80 119 -10 -7 -23 -12 -28 -12 -5 0 -11 66 -13 148 -3 136 -5 151
-31 207 -15 33 -36 68 -45 79 -23 25 -152 109 -159 103 -3 -3 10 -13 28 -23
65 -33 130 -97 156 -154 39 -84 49 -169 35 -323 -16 -185 -35 -262 -57 -227
-16 25 -25 4 -25 -56 0 -49 -4 -70 -16 -78 -8 -7 -22 -47 -31 -91 -9 -44 -25
-93 -35 -110 l-19 -30 6 41 c5 36 3 45 -17 64 -26 25 -58 44 -58 34 0 -3 8
-18 19 -32 25 -36 33 -138 12 -155 -12 -9 -13 -9 -7 1 4 6 2 12 -3 12 -6 0
-11 -8 -11 -17 0 -25 -61 -67 -72 -50 -6 8 -8 6 -6 -6 2 -13 -7 -23 -30 -32
-31 -14 -33 -13 -42 9 -16 42 -59 41 -60 -1 0 -20 -14 -15 -25 9 -14 31 -33
33 -44 5 -6 -14 -14 -28 -20 -31 -12 -8 -73 28 -64 38 4 4 -1 4 -10 0 -14 -5
-35 11 -87 64 -66 67 -70 75 -82 139 -7 39 -20 75 -31 86 -17 17 -19 30 -14
83 5 70 -2 78 -38 44 l-22 -21 -6 68 c-3 37 -10 69 -16 71 -14 5 -15 39 -1 44
6 2 7 48 1 134 -8 135 -4 183 23 267 18 55 7 55 -20 0 -13 -29 -19 -71 -22
-171 -4 -107 -7 -132 -18 -128 -43 18 -47 16 -22 -5 27 -24 53 -77 43 -87 -3
-3 -19 7 -35 23 -36 34 -52 26 -23 -13 16 -21 18 -33 10 -55 -7 -22 -12 -26
-23 -16 -23 19 -28 -15 -11 -66 13 -38 14 -45 2 -45 -52 0 -58 217 -8 273 9 9
11 17 6 17 -6 0 -19 -12 -29 -27 -15 -22 -19 -47 -19 -123 0 -81 4 -103 25
-149 l26 -55 32 56 c48 86 51 85 67 -14 7 -45 19 -48 39 -10 18 32 18 31 16
-71 -1 -75 0 -78 19 -72 15 4 21 2 21 -9 0 -8 5 -38 11 -66 9 -41 21 -61 71
-110 32 -33 89 -76 125 -97 l66 -36 20 24 c11 13 22 19 24 13 2 -6 10 -20 17
-30 14 -18 15 -18 27 9 15 33 23 34 43 5 15 -21 16 -21 51 -5 46 22 135 87
179 132 37 37 76 142 76 204 0 17 5 31 10 31 6 0 10 -5 10 -11 0 -5 5 -7 10
-4 6 3 10 40 10 82 0 74 1 76 19 59 17 -15 19 -15 25 -1 3 9 6 30 6 45 0 64
22 41 111 -115 67 -118 64 -104 67 -327 3 -189 1 -210 -17 -245 -40 -80 -116
-166 -277 -314 -91 -83 -188 -182 -214 -218 -89 -120 -82 -119 -76 -11 3 52
11 111 17 130 6 19 13 54 14 78 10 118 70 246 193 410 16 22 19 31 8 22 -74
-58 -182 -260 -217 -405 -22 -93 -40 -284 -32 -329 6 -30 21 -34 30 -8 15 39
146 192 233 272 51 47 96 86 101 88 4 2 -2 -25 -13 -60 -23 -74 -45 -176 -93
-428 -48 -248 -70 -409 -97 -694 -20 -209 -25 -240 -41 -244 -16 -4 -20 -14
-30 -67 -3 -16 -7 -12 -20 19 -10 22 -19 37 -21 35 -3 -2 -12 -42 -21 -89 -10
-47 -21 -89 -25 -94 -5 -5 -18 20 -29 55 -28 89 -46 138 -53 145 -4 3 -12 -14
-19 -37 -10 -39 -12 -41 -20 -22 -4 12 -13 59 -19 105 -12 86 -50 294 -76 408
-8 36 -23 119 -34 185 -46 284 -63 377 -95 500 -29 111 -65 270 -65 285 0 2
25 -20 56 -50 72 -70 216 -246 233 -285 l14 -30 8 25 c4 14 7 73 8 131 1 82
-5 128 -23 200 -24 96 -98 280 -143 357 -39 68 -38 42 1 -36 85 -169 146 -353
144 -437 0 -22 3 -73 7 -112 9 -80 -1 -94 -32 -45 -37 59 -154 190 -402 452
-85 89 -137 286 -115 435 6 36 10 65 9 65 -1 0 -16 -11 -35 -25 -19 -14 -43
-25 -54 -25 -12 0 -40 -11 -63 -24 -23 -13 -44 -21 -47 -18 -3 3 -6 272 -6
599 l0 593 398 -1 397 0 -55 -19z m1675 -4 c-91 -30 -195 -93 -309 -187 -131
-109 -230 -217 -251 -273 -17 -43 -17 -54 -5 -119 8 -40 13 -102 13 -138 -1
-57 -8 -80 -46 -160 -25 -52 -49 -107 -53 -123 -8 -32 -4 -32 54 11 18 14 46
26 62 28 16 2 47 13 70 25 22 11 45 18 50 15 6 -3 10 -25 10 -48 0 -72 58
-305 81 -331 5 -6 11 4 15 21 4 21 11 30 19 26 8 -2 20 5 27 16 16 27 26 26
62 -3 l30 -23 -82 -47 c-80 -47 -128 -85 -147 -119 -5 -10 -48 -33 -95 -52
-95 -39 -94 -45 2 -15 34 11 66 20 71 20 13 0 8 -182 -8 -263 -8 -43 -15 -108
-15 -144 l0 -65 -42 6 c-24 3 -50 2 -58 -4 -12 -8 -9 -10 13 -10 15 0 27 -4
27 -10 0 -5 -4 -10 -8 -10 -5 0 -17 -7 -28 -15 -12 -10 -3 -8 27 5 62 27 123
17 394 -65 66 -19 138 -40 160 -45 36 -8 38 -7 21 6 -11 8 -23 14 -28 14 -4 0
-8 7 -8 15 0 19 32 33 38 17 3 -9 10 -8 25 3 12 8 35 16 52 16 17 1 22 3 13 6
-10 2 -18 8 -18 11 0 4 40 49 88 101 l88 94 62 5 c33 2 73 1 87 -2 l25 -6 0
-176 0 -176 -22 16 c-91 66 -177 107 -248 120 -19 3 -5 -5 33 -18 70 -25 149
-71 204 -120 l33 -28 0 -195 0 -195 -52 -53 c-44 -43 -63 -54 -106 -64 -108
-23 -160 -9 -298 79 -55 34 -72 31 -29 -6 17 -14 23 -23 15 -20 -8 2 -73 23
-145 46 -71 23 -202 67 -290 100 -88 32 -189 66 -223 76 -67 18 -82 35 -82 90
0 33 16 30 84 -17 32 -22 60 -38 62 -36 2 2 -24 23 -59 45 -86 56 -92 63 -79
109 22 80 21 86 -5 33 -22 -45 -27 -67 -25 -123 1 -60 -1 -68 -16 -65 -26 5
-39 87 -24 146 31 118 101 214 192 262 22 12 29 19 17 20 -19 0 -59 -22 -95
-54 -13 -12 -26 -16 -31 -10 -8 9 -37 137 -51 232 -5 30 -11 56 -14 60 -14 14
-4 -84 18 -169 38 -149 40 -138 -39 -220 -59 -61 -77 -74 -112 -79 l-41 -7 -1
143 -2 143 36 39 c28 32 35 47 34 78 -2 37 -2 38 -8 9 -3 -17 -18 -47 -33 -65
l-28 -35 0 963 0 962 508 -1 507 -1 -70 -22z m485 -68 l0 -91 -29 40 c-39 54
-95 96 -161 121 l-55 21 123 0 122 1 0 -92z m-171 43 c53 -28 117 -85 147
-133 23 -36 24 -45 24 -238 0 -110 -2 -200 -5 -200 -18 0 -85 43 -85 54 0 7
-10 25 -21 40 -16 20 -19 30 -10 39 30 30 -2 36 -39 7 -20 -16 -90 -29 -90
-17 0 2 9 23 21 46 28 58 17 63 -26 14 -33 -39 -201 -141 -212 -129 -3 3 4 17
14 33 31 43 45 73 34 73 -9 0 -117 -146 -140 -189 -21 -39 -90 -61 -193 -61
-75 0 -99 4 -125 20 -18 11 -33 23 -33 28 0 16 160 179 233 237 42 33 76 63
77 68 1 30 -70 -25 -229 -180 -103 -100 -106 -103 -114 -78 -7 20 -2 38 18 78
25 49 100 148 117 155 10 5 10 32 0 32 -4 0 -34 -34 -66 -76 -70 -88 -92 -115
-100 -117 -4 -1 -15 13 -27 31 l-20 34 21 44 c12 24 33 52 46 63 13 10 52 44
86 76 129 118 308 231 408 260 79 22 232 14 289 -14z m-4259 -51 c31 17 42 2
48 -63 3 -40 0 -56 -12 -66 -14 -12 -16 -9 -16 22 0 19 -3 43 -6 52 -6 14 -8
14 -26 -1 -18 -17 -19 -17 -34 4 -21 31 -46 27 -67 -10 -17 -29 -20 -31 -29
-15 -5 10 -8 20 -6 22 1 2 21 25 43 50 l40 46 21 -26 c19 -24 24 -26 44 -15z
m1472 -263 l37 -42 0 -125 0 -125 -27 80 c-29 87 -67 157 -113 209 -42 49 -39
60 19 52 39 -6 54 -14 84 -49z m-76 -59 c15 -28 14 -31 -6 -54 -16 -16 -21
-31 -18 -49 7 -35 -5 -39 -32 -10 -28 30 -44 32 -35 5 8 -25 4 -25 -54 4 -26
14 -62 24 -79 24 -31 -1 -82 25 -82 42 0 15 66 23 88 11 34 -18 62 -14 62 9 0
17 5 19 25 14 21 -5 25 -3 25 16 0 22 0 22 47 3 7 -3 16 2 19 11 8 20 20 12
40 -26z m-796 -43 c0 -18 21 -20 37 -4 22 22 35 4 15 -21 -26 -33 -114 -79
-119 -63 -3 7 -11 9 -19 6 -25 -9 -15 10 28 54 45 46 58 52 58 28z m123 -31
c5 -28 -8 -38 -43 -32 l-22 3 22 28 c27 34 36 34 43 1z m-1533 6 c0 -5 -5 -10
-11 -10 -5 0 -7 5 -4 10 3 6 8 10 11 10 2 0 4 -4 4 -10z m-25 -42 c33 4 35 3
35 -26 0 -32 -22 -62 -44 -62 -9 0 -12 9 -8 25 2 14 1 25 -2 25 -18 0 -66 -33
-85 -57 -18 -25 -20 -26 -21 -8 0 11 8 32 17 45 22 32 67 71 71 61 1 -4 18 -5
37 -3z m5125 -80 c31 -60 32 -62 8 -40 -40 37 -78 43 -113 18 -47 -32 -168
-131 -192 -158 -21 -22 -22 -26 -7 -46 8 -12 19 -22 23 -22 5 0 32 16 59 35
54 37 55 36 66 -9 7 -28 6 -28 -23 -23 -32 7 -43 -6 -15 -17 47 -18 142 2 152
32 2 7 -11 4 -33 -9 -20 -12 -37 -20 -39 -18 -2 2 -6 29 -7 59 l-4 55 58 23
c74 29 121 23 143 -20 17 -33 14 -181 -8 -348 -10 -81 -12 -87 -52 -125 -23
-22 -67 -60 -99 -84 -50 -38 -65 -44 -129 -51 -125 -14 -160 -5 -268 68 -121
82 -148 108 -160 152 -12 40 -27 214 -22 248 5 35 32 40 56 10 25 -30 57 -48
83 -47 12 0 7 5 -13 14 -30 13 -74 58 -74 75 0 32 95 1 104 -35 8 -30 37 -41
53 -19 8 11 20 14 37 10 27 -7 32 3 17 32 -4 9 -11 29 -15 44 -5 22 -3 26 9
22 9 -4 15 0 15 8 0 22 66 70 160 115 47 23 105 57 130 77 25 19 50 35 56 35
6 1 26 -27 44 -61z m-5394 28 c44 -3 93 -10 108 -16 l28 -10 -26 -31 c-14 -17
-26 -36 -26 -42 1 -7 7 -1 15 13 13 23 14 18 15 -67 l0 -93 -29 0 c-31 0 -27
7 -164 -263 -12 -24 -21 -63 -22 -102 -1 -34 -5 -68 -9 -74 -8 -13 2 -17 57
-25 21 -3 58 -14 81 -26 42 -20 64 -36 232 -166 66 -51 223 -211 324 -330 14
-16 42 -49 63 -73 21 -24 36 -50 33 -58 -3 -8 -2 -11 4 -8 5 3 8 -4 7 -15 -1
-11 -5 -20 -9 -20 -4 0 -49 40 -100 89 -116 110 -304 266 -358 296 -8 4 -5 -2
7 -14 43 -41 65 -188 52 -343 -4 -57 -8 -104 -9 -105 -2 -12 -45 2 -86 27
l-49 30 63 -58 c34 -32 62 -63 62 -69 0 -7 9 -14 19 -18 27 -8 118 -131 167
-225 22 -44 28 -68 28 -118 0 -60 -2 -64 -45 -108 -61 -64 -171 -134 -325
-209 -196 -96 -209 -99 -165 -37 23 34 103 193 99 197 -2 2 -34 -53 -72 -121
l-69 -126 -85 -39 c-47 -21 -89 -39 -93 -39 -5 0 -9 139 -9 308 l0 309 88 58
c48 32 123 84 168 116 45 31 91 60 103 64 34 11 131 -13 131 -33 1 -15 2 -15
11 1 6 10 9 20 7 23 -8 7 -231 54 -236 50 -2 -3 12 -8 32 -11 20 -4 36 -11 36
-16 0 -6 -30 -29 -67 -52 -38 -23 -113 -72 -168 -109 l-100 -68 -3 127 c-2
115 -1 128 18 148 26 28 26 44 0 20 -20 -18 -20 -17 -20 95 l0 113 36 -72 c19
-39 32 -76 28 -83 -5 -8 -2 -9 10 -5 11 5 30 -3 54 -22 36 -29 119 -67 127
-59 2 2 -19 13 -48 23 -75 29 -127 88 -171 193 -34 82 -49 182 -28 182 17 0
278 -94 288 -104 6 -6 26 -48 44 -94 18 -45 37 -85 43 -89 6 -4 8 -1 4 8 -41
96 -67 163 -63 166 2 3 14 0 25 -7 12 -6 21 -7 21 -2 0 8 -251 110 -327 133
l-43 12 0 130 c0 119 1 129 17 122 37 -14 113 -26 140 -23 20 2 8 7 -40 16
-103 19 -117 27 -117 61 0 25 3 29 18 24 23 -8 152 -70 177 -85 86 -53 145
-88 145 -83 0 11 -160 111 -246 152 -81 39 -94 49 -94 70 0 24 2 25 48 18 26
-3 58 -9 72 -12 19 -4 22 -3 14 6 -6 7 -26 14 -45 16 -86 11 -89 13 -89 58 l0
41 28 -25 c64 -58 73 -60 24 -6 l-52 59 0 258 c0 258 0 259 22 266 35 11 120
21 153 18 17 -2 66 -5 111 -8z m794 -1 c7 -9 8 -15 2 -15 -5 0 -12 7 -16 15
-3 8 -4 15 -2 15 2 0 9 -7 16 -15z m1432 -21 c12 -39 35 -218 50 -382 11 -125
11 -135 -7 -168 -28 -53 -102 -109 -211 -161 l-98 -46 -84 44 c-47 24 -106 63
-133 87 -42 38 -51 53 -77 135 -42 128 -44 143 -27 157 8 7 21 10 29 7 7 -3
19 0 25 6 10 9 16 7 27 -7 8 -11 14 -26 14 -33 0 -24 48 -90 69 -96 13 -3 21
0 21 6 -1 22 -34 75 -72 116 -43 46 -48 57 -15 40 19 -11 21 -11 9 3 -11 14
-8 20 20 41 18 13 51 35 73 48 43 25 218 147 275 191 38 29 79 48 94 44 6 -1
14 -16 18 -32z m-1587 -1 c23 -23 35 -58 35 -105 0 -43 1 -43 66 -23 18 6 25
-4 57 -77 21 -46 37 -89 37 -96 0 -7 5 -10 11 -7 6 4 13 -3 16 -14 15 -59 50
38 52 146 l1 52 58 16 c31 9 85 32 120 51 l62 34 0 -260 c0 -162 -4 -261 -10
-265 -5 -3 -10 -11 -10 -16 0 -6 5 -7 10 -4 7 4 10 -51 10 -157 l0 -164 -70
-69 c-38 -38 -67 -71 -64 -74 2 -3 34 24 69 59 l65 64 0 -82 0 -82 -57 -2 -58
-2 58 -3 57 -4 0 -160 c0 -126 -3 -159 -12 -153 -7 5 -49 31 -94 60 l-81 52
-11 68 c-13 78 -3 106 46 126 22 9 24 12 9 15 -14 4 -16 8 -6 19 6 8 8 14 3
14 -5 0 -21 -14 -36 -32 -15 -18 -30 -29 -33 -26 -4 3 -1 41 5 85 7 43 17 139
23 213 l12 135 48 31 c69 45 71 52 3 15 -32 -18 -61 -29 -65 -26 -3 4 -11 28
-18 53 -8 31 -11 35 -8 13 6 -42 2 -38 -36 31 -50 91 -67 134 -74 185 -4 27
-17 58 -28 71 -25 27 -92 58 -145 68 -53 10 -56 13 -31 40 16 17 23 38 25 76
l3 53 -9 -50 c-14 -75 -63 -108 -94 -63 -17 24 -22 17 -7 -10 8 -16 -6 -17
-174 -18 l-184 0 29 35 c50 63 90 97 99 83 5 -9 15 -4 36 18 36 37 46 37 88 0
44 -38 60 -38 75 3 9 23 15 28 21 18 6 -9 11 -10 15 -2 4 6 4 16 0 23 -9 14
23 38 52 38 13 0 30 -7 39 -17z m215 -9 c0 -3 -4 -2 -10 1 -5 3 -10 1 -10 -5
0 -6 -4 -8 -10 -5 -5 3 -10 13 -10 21 0 12 4 12 20 4 11 -6 20 -13 20 -16z
m2123 -144 c-5 -19 -23 -39 -23 -25 0 9 20 45 24 45 2 0 2 -9 -1 -20z m-1567
-9 c-22 -25 -13 -45 14 -31 25 13 30 13 30 -4 0 -8 5 -16 11 -18 7 -2 -16 -28
-51 -56 -34 -29 -65 -50 -68 -47 -3 3 0 11 6 17 17 17 15 41 -2 35 -23 -9 -25
2 -9 41 18 44 51 82 71 82 12 0 12 -3 -2 -19z m-966 -56 c10 -12 15 -13 21 -4
6 10 24 10 88 0 104 -16 146 -30 132 -44 -18 -18 -12 -28 8 -15 20 12 70 -2
91 -27 14 -17 -49 -207 -67 -201 -18 7 -30 -15 -36 -72 -6 -49 -10 -56 -83
-127 -68 -66 -82 -75 -115 -75 -54 0 -88 16 -137 63 l-44 42 7 80 c6 80 -8
175 -26 175 -5 0 -9 -6 -9 -13 0 -7 -18 -31 -40 -52 -39 -38 -41 -39 -46 -17
-7 25 -15 27 -32 10 -17 -17 -58 5 -82 44 -39 64 -19 173 30 173 20 0 30 -10
50 -50 l24 -50 11 73 c6 40 15 76 21 81 10 10 61 16 160 19 45 2 65 -2 74 -13z
m-799 -172 c-12 -20 -14 -14 -5 12 4 9 9 14 11 11 3 -2 0 -13 -6 -23z m639
-134 c-19 -75 -27 -80 -132 -86 -75 -4 -97 -2 -113 11 -19 15 -17 15 30 16 65
1 127 29 172 80 43 48 58 41 43 -21z m-906 -60 c-24 -27 -29 -16 -8 16 10 16
20 23 22 16 2 -7 -4 -21 -14 -32z m3455 -249 c25 -78 56 -127 139 -215 71 -76
78 -98 30 -88 -50 9 -88 31 -100 58 -12 26 -32 33 -43 15 -3 -5 -16 -10 -28
-10 -12 0 -36 -9 -53 -19 -33 -20 -48 -54 -74 -171 -6 -30 -17 -73 -22 -95
l-11 -40 -13 30 c-9 21 -13 83 -14 202 0 161 2 176 24 225 33 74 44 106 52
158 l6 45 -28 -25 c-16 -14 -35 -31 -41 -39 -11 -12 -13 5 -13 91 l0 105 53
17 c28 9 63 23 77 31 l25 13 7 -111 c4 -68 14 -137 27 -177z m-1145 233 c8
-16 33 -39 56 -53 22 -14 58 -48 79 -77 l39 -51 -40 -44 c-22 -23 -60 -69 -85
-100 -25 -32 -49 -58 -52 -59 -85 -7 -91 -6 -91 20 0 14 -8 47 -17 73 -16 45
-16 50 0 83 9 20 17 41 17 47 0 6 11 36 24 67 13 31 30 71 38 89 7 17 14 32
15 32 1 0 9 -12 17 -27z m-4114 -64 c-61 -54 -70 -58 -70 -30 0 12 20 31 58
53 31 19 59 33 62 30 3 -2 -20 -26 -50 -53z m5037 29 c-3 -7 -5 -2 -5 12 0 14
2 19 5 13 2 -7 2 -19 0 -25z m-1962 -75 c-5 -10 -10 -45 -12 -78 -6 -72 -1
-78 77 -97 40 -10 58 -21 67 -39 12 -24 13 -24 13 -2 0 14 10 28 28 37 28 14
80 67 115 116 17 25 17 23 11 -55 -12 -168 -70 -426 -117 -525 -21 -44 -22
-51 -9 -62 41 -35 68 -158 40 -186 -7 -7 -23 -12 -37 -12 -18 0 -22 -3 -14
-11 8 -8 19 -7 42 4 29 15 31 14 31 -4 0 -31 -19 -59 -39 -59 -26 0 -99 66
-121 111 -24 45 -25 56 -6 40 12 -10 12 -6 0 26 -7 21 -13 48 -14 60 0 37 21
73 44 73 20 0 20 0 -2 16 -16 11 -22 26 -23 57 0 23 -4 62 -9 87 -7 38 -8 31
-7 -43 1 -48 1 -87 0 -87 -1 0 -13 18 -26 40 -23 39 -106 136 -221 257 -33 35
-57 65 -54 68 2 3 19 1 36 -4 18 -5 32 -6 32 -3 0 4 28 16 61 26 51 15 63 16
70 4 7 -11 9 -11 9 0 0 35 27 -2 47 -64 13 -38 20 -53 17 -34 -4 19 -14 60
-24 90 -10 30 -22 75 -25 99 -5 26 -17 54 -31 68 -13 13 -24 27 -24 30 0 11
63 73 73 73 5 0 6 -8 2 -17z m-323 -21 c24 -33 71 -62 99 -62 16 0 29 -4 29
-10 0 -5 -6 -10 -12 -10 -24 1 -152 20 -156 24 -6 7 10 76 19 76 4 0 14 -8 21
-18z m1978 -112 c0 -116 -1 -122 -25 -144 -29 -27 -32 -36 -7 -30 15 5 17 -2
14 -53 -2 -32 -6 -65 -9 -73 -3 -8 -5 -26 -4 -40 2 -33 -32 -163 -60 -225 -64
-145 -199 -329 -237 -323 -8 2 -17 -3 -20 -11 -7 -21 113 -6 203 24 78 26 214
96 259 132 16 13 32 20 36 16 5 -4 27 -53 50 -108 23 -55 58 -130 76 -167 l34
-68 0 -1062 -1 -1063 -24 50 c-32 68 -70 162 -85 210 -6 22 -73 224 -147 450
-144 438 -192 590 -218 697 -11 42 -23 68 -33 72 -10 3 -37 22 -60 41 -24 19
-48 33 -53 29 -5 -3 -21 -29 -35 -57 -38 -76 -116 -198 -123 -195 -4 2 -49 48
-100 103 -52 55 -100 101 -107 103 -15 4 -50 -22 -168 -120 -39 -32 -77 -58
-86 -58 -11 0 -42 43 -86 116 -39 67 -79 121 -91 127 l-23 10 0 366 0 365 33
-31 c17 -17 42 -36 55 -43 22 -11 23 -10 12 11 -24 44 -8 335 19 362 7 7 14 0
21 -19 21 -58 46 -96 83 -131 44 -40 54 -38 38 8 -13 39 -14 82 -2 74 5 -3 12
21 16 52 3 32 7 64 8 72 1 8 7 16 14 18 15 5 53 -80 46 -106 -4 -15 -1 -19 14
-15 21 6 127 -13 308 -54 201 -46 208 -47 221 -20 7 13 36 70 66 128 67 129
80 166 69 188 -41 79 -46 107 -46 253 0 143 1 148 25 175 25 27 107 84 122 84
4 0 8 -54 8 -120z m-5928 78 c59 -41 42 -102 -27 -102 -22 0 -35 -5 -35 -13 0
-17 18 -16 70 2 24 8 44 14 46 13 13 -14 63 -165 59 -179 -15 -46 -144 -121
-171 -99 -10 9 -14 9 -14 1 0 -6 -12 -11 -26 -11 l-26 0 5 178 c4 148 8 182
23 209 16 27 23 31 44 26 14 -3 37 -15 52 -25z m3158 16 c0 -2 -7 -4 -15 -4
-8 0 -15 4 -15 10 0 5 7 7 15 4 8 -4 15 -8 15 -10z m-2015 -54 c-10 -11 -22
-17 -27 -14 -4 3 -8 2 -7 -3 4 -21 -2 -33 -16 -33 -8 0 -14 -6 -12 -12 1 -7
-4 -12 -11 -10 -8 1 -11 -1 -8 -6 7 -12 -23 -54 -35 -47 -5 3 -6 -1 -3 -9 3
-8 -6 -27 -20 -43 -14 -15 -35 -40 -46 -55 -12 -15 -27 -25 -34 -22 -8 3 -17
1 -21 -5 -8 -13 -135 -15 -135 -2 0 6 25 31 57 58 31 26 65 56 75 66 10 9 22
17 27 17 6 0 16 9 24 20 23 32 111 97 126 92 8 -3 11 0 7 6 -4 7 6 12 26 15
18 2 37 5 42 5 5 1 1 -7 -9 -18z m-201 -61 c-21 -21 -39 -37 -40 -36 -7 7 9
46 16 42 5 -3 6 4 3 16 -7 26 14 41 40 27 18 -9 17 -12 -19 -49z m3146 32 c25
0 62 6 82 13 37 13 37 13 47 -17 21 -59 15 -76 -36 -100 -56 -25 -145 -26
-196 -2 -18 8 -56 36 -85 61 -47 41 -51 48 -36 59 13 9 34 9 98 -1 45 -8 101
-13 126 -13z m4216 -17 c-3 -9 -6 -70 -7 -137 0 -78 -4 -115 -9 -102 -10 24
-13 179 -4 224 4 17 11 31 16 31 6 0 7 -7 4 -16z m511 -128 l33 -99 -19 -36
c-32 -59 -71 -152 -71 -167 0 -14 -38 -34 -66 -34 -8 0 -14 8 -14 19 0 25 -35
68 -70 86 -100 52 -220 -30 -207 -141 4 -39 2 -44 -15 -44 -17 0 -19 5 -15 28
4 15 16 71 27 125 11 55 23 103 26 108 3 5 42 9 87 9 125 0 139 12 193 172 24
71 28 76 53 75 24 -2 29 -11 58 -101z m330 27 c-5 -7 -14 -13 -19 -13 -5 0
-15 -6 -23 -12 -7 -7 -39 -35 -71 -63 -31 -27 -66 -58 -76 -68 -28 -27 -42
-16 -62 47 -19 61 -16 76 17 76 26 0 128 34 158 53 15 9 23 9 39 -1 25 -15 28
-15 27 1 0 6 1 23 3 37 2 21 4 20 9 -10 4 -19 3 -41 -2 -47z m-9993 25 c13
-18 45 -89 71 -158 64 -171 72 -196 86 -268 10 -54 9 -68 -5 -106 -9 -24 -26
-52 -36 -61 -19 -18 -22 -16 -24 15 -1 8 -8 16 -16 18 -11 2 -24 -23 -47 -85
-47 -129 -122 -388 -135 -465 -11 -60 -10 -72 7 -105 15 -32 20 -73 26 -243 4
-113 13 -226 19 -252 17 -64 10 -78 -39 -78 -22 0 -51 -4 -64 -9 -22 -9 -25
-7 -31 21 -3 17 -6 169 -6 339 0 240 3 309 13 310 9 0 10 2 0 6 -10 4 -13 120
-13 532 l0 528 50 47 c63 59 106 63 144 14z m9502 -44 c11 -41 -27 -134 -54
-134 -24 1 -62 63 -62 101 0 13 16 38 38 58 37 36 37 36 55 16 9 -11 20 -30
23 -41z m504 -128 l0 -104 -59 -7 c-33 -4 -65 -4 -71 0 -8 5 10 30 51 71 35
35 57 64 50 64 -8 0 -68 -54 -134 -120 l-120 -120 -54 0 c-40 0 -53 4 -53 15
0 20 77 185 86 185 4 0 19 -14 34 -31 l26 -31 54 49 c55 50 168 132 183 133 4
0 7 -47 7 -104z m-276 34 l7 -25 -15 25 c-9 14 -15 32 -15 40 0 13 1 13 8 0 5
-8 12 -26 15 -40z m-7026 -275 c1 -154 0 -286 -3 -294 -4 -11 -12 -7 -33 16
-148 166 -154 175 -195 270 -39 89 -46 100 -82 117 -51 23 -57 34 -40 67 19
37 29 40 300 102 52 12 50 22 53 -278z m6607 259 c28 -24 28 -25 6 -20 -36 7
-68 -9 -76 -41 -4 -15 -15 -75 -24 -133 l-18 -105 -35 1 c-66 2 -68 5 -68 96
0 99 9 160 22 152 12 -8 88 26 88 38 0 8 54 36 70 38 3 0 19 -12 35 -26z
m-4492 -44 c23 -23 64 -59 90 -80 27 -22 45 -40 40 -40 -4 0 3 -6 17 -13 14
-8 24 -20 22 -28 -2 -8 0 -11 3 -7 13 13 145 -101 145 -125 0 -5 -12 -6 -27
-3 -16 3 -50 8 -78 12 -27 3 -70 16 -95 29 -25 12 -57 28 -72 35 -15 7 -30 21
-34 32 -3 10 -12 18 -19 18 -9 0 -17 15 -20 38 -4 20 -11 59 -16 85 -10 55
-12 87 -3 87 3 0 25 -18 47 -40z m2459 -82 c19 -24 37 -48 41 -54 3 -6 0 -71
-8 -145 -24 -213 -23 -315 3 -370 12 -25 33 -58 46 -72 l26 -28 -46 -66 c-34
-50 -42 -68 -32 -74 10 -7 9 -12 -6 -26 -18 -17 -19 -17 -13 0 4 11 3 16 -3
12 -6 -3 -10 -15 -10 -26 0 -11 -4 -18 -8 -15 -21 13 -142 -242 -142 -301 -1
-24 -2 -26 -11 -10 -7 11 -9 155 -6 420 3 382 4 405 25 466 12 35 34 114 47
175 27 120 40 156 54 156 5 0 24 -19 43 -42z m2155 -17 c44 -20 73 -62 73
-104 0 -25 -35 -63 -89 -95 -31 -19 -36 -19 -77 -5 -53 18 -74 45 -74 95 0 55
18 85 64 108 50 24 51 24 103 1z m-4036 -41 c1 19 28 -78 29 -102 0 -13 -8
-18 -25 -18 -14 0 -33 -8 -43 -18 -23 -23 -55 -17 -46 10 14 46 46 108 54 108
6 0 10 8 10 18 0 14 2 15 10 2 9 -13 10 -13 11 0z m143 -107 l86 -58 0 -63 c0
-69 4 -68 -65 -22 -22 15 -53 35 -68 44 -31 19 -41 40 -51 109 -5 29 -3 47 3
47 5 0 48 -26 95 -57z m4146 25 c0 -25 -63 -78 -92 -78 -17 0 -39 -10 -54 -25
-14 -14 -33 -25 -44 -25 -25 0 -71 21 -68 32 2 4 30 30 63 57 59 49 62 50 128
50 46 1 67 -3 67 -11z m-4860 -90 c0 -18 13 -40 38 -66 50 -52 124 -139 142
-168 8 -13 20 -24 27 -24 19 0 16 -27 -13 -105 -36 -95 -47 -104 -42 -32 3 32
1 60 -4 63 -4 3 -8 17 -8 31 0 33 -87 162 -117 174 -13 5 -23 16 -23 24 0 9
-11 27 -25 41 -27 27 -31 57 -14 101 10 27 11 27 25 9 8 -11 14 -32 14 -48z
m-2678 -35 c23 -21 23 -33 -2 -33 -20 0 -44 32 -33 44 9 9 15 8 35 -11z m3431
-68 l46 -30 0 -95 0 -95 -29 35 c-62 74 -139 227 -123 244 4 3 18 -2 33 -12
15 -9 47 -30 73 -47z m-3208 -42 c77 -25 184 -68 238 -95 83 -42 97 -53 97
-74 0 -13 -5 -24 -10 -24 -29 0 -382 155 -530 233 l-35 18 50 -6 c28 -4 113
-27 190 -52z m30 -88 c55 -26 145 -64 200 -85 l100 -39 3 -99 3 -99 -37 -54
c-50 -75 -116 -157 -132 -163 -13 -6 -82 42 -82 56 0 4 20 21 45 38 25 17 45
38 45 46 0 40 -212 258 -352 363 l-58 43 0 59 0 58 83 -38 c45 -21 127 -60
182 -86z m6344 91 c-7 -14 -19 -26 -26 -26 -11 0 -9 8 7 31 26 35 36 33 19 -5z
m-24 -63 c-14 -31 -18 -139 -6 -161 6 -11 32 -28 58 -37 27 -10 67 -24 90 -32
41 -15 123 -86 123 -107 0 -5 -12 -27 -26 -47 -30 -44 -98 -80 -268 -143
l-116 -44 0 278 0 279 63 14 c84 21 91 20 82 0z m-1110 -55 c-10 -43 -74 -132
-115 -160 -29 -19 -40 -22 -62 -14 -33 12 -36 22 -9 31 31 10 88 59 137 119
26 31 49 56 51 56 3 0 1 -14 -2 -32z m-5850 -88 c17 -41 50 -115 74 -163 24
-48 41 -91 37 -94 -3 -4 -6 0 -7 8 0 8 -7 -2 -16 -21 -29 -66 -150 -155 -147
-107 1 9 -2 17 -7 17 -12 0 -89 157 -89 181 0 10 -4 20 -9 23 -8 5 -54 174
-53 193 1 8 31 17 107 33 73 15 77 12 110 -70z m-225 -45 c7 -33 21 -87 31
-119 17 -55 17 -60 1 -82 -9 -13 -22 -24 -29 -24 -6 0 -13 -4 -15 -8 -6 -16
-152 -117 -205 -143 l-54 -26 3 125 3 126 33 8 c17 5 32 13 32 18 0 6 6 10 14
10 20 0 78 63 124 132 20 31 40 54 43 50 3 -4 12 -34 19 -67z m7020 -51 c0
-53 -4 -94 -9 -92 -5 2 -25 25 -45 51 l-37 48 38 44 c21 24 41 44 46 45 4 0 7
-43 7 -96z m-7323 -87 c-2 -23 -3 -1 -3 48 0 50 1 68 3 42 2 -26 2 -67 0 -90z
m4029 -53 c81 -82 244 -303 244 -332 0 -5 7 -15 15 -22 13 -11 19 -4 41 46 14
33 34 91 44 129 19 69 19 55 19 -1102 l1 -1173 -406 0 c-365 0 -406 2 -400 16
3 8 1 35 -5 58 -9 37 -7 50 15 106 14 34 54 110 88 169 34 58 74 135 89 170
33 78 47 85 151 76 83 -7 120 5 183 60 28 24 25 23 -29 -6 -51 -28 -70 -33
-157 -37 -75 -4 -99 -2 -99 8 0 28 -28 -13 -54 -79 -15 -39 -49 -105 -74 -148
-79 -130 -119 -215 -132 -282 l-13 -64 -116 6 c-64 3 -136 11 -160 18 l-43 12
6 56 c8 77 16 173 10 136 -14 -91 -27 -135 -44 -150 -14 -12 -20 -31 -20 -59
0 -46 -14 -76 -28 -61 -5 6 -17 44 -26 85 -16 69 -16 82 -2 140 21 93 31 114
72 159 38 43 53 45 55 8 1 -12 5 24 10 81 8 109 5 102 109 282 44 76 90 194
90 230 0 20 0 20 -37 1 -21 -10 -65 -24 -98 -31 -72 -15 -96 -38 -175 -165
-79 -127 -108 -155 -159 -155 l-41 0 0 369 0 370 48 6 c162 22 273 53 416 119
43 20 82 36 87 36 5 0 7 -42 4 -92 -6 -117 1 -96 14 42 54 585 73 677 205
1007 24 60 60 121 80 135 14 10 118 -74 222 -178z m4062 -10 c69 -21 77 -33
68 -97 -5 -33 -14 -47 -41 -64 -41 -27 -60 -28 -107 -8 -70 28 -91 114 -42
166 29 30 35 30 122 3z m-6618 -30 c0 -8 -4 -14 -10 -14 -5 0 -10 9 -10 21 0
11 5 17 10 14 6 -3 10 -13 10 -21z m4676 -15 c-2 -11 105 -127 140 -151 18
-13 36 -29 38 -35 3 -7 -33 -64 -80 -127 l-86 -114 -51 20 c-29 11 -68 24 -87
29 -62 17 -109 41 -115 59 -6 18 22 106 53 165 21 40 57 87 121 155 31 34 35
36 51 21 9 -9 17 -19 16 -22z m1169 19 c3 -13 4 -122 3 -242 l-3 -219 -65 -18
c-47 -13 -67 -14 -72 -6 -4 6 -19 59 -33 118 -28 111 -27 129 9 159 9 7 16 19
16 26 0 8 18 30 40 50 22 20 40 42 40 49 0 6 9 20 20 30 11 10 20 31 20 47 0
33 17 37 25 6z m-5857 -30 c13 -13 17 -138 4 -138 -6 0 -70 39 -90 56 -5 3 61
93 69 94 3 0 10 -5 17 -12z m-141 -200 l153 -168 0 -262 c0 -285 -5 -342 -26
-334 -23 9 -101 68 -188 141 -129 109 -293 246 -356 295 -32 25 -78 62 -102
83 -25 20 -49 37 -54 37 -10 0 -49 54 -59 82 -12 31 90 153 155 186 53 27 286
110 305 109 11 -1 84 -73 172 -169z m6230 105 c-2 -10 -8 -25 -12 -34 -4 -11
4 -29 24 -52 47 -53 43 -89 -14 -129 -34 -24 -48 -42 -56 -73 -6 -22 -23 -60
-37 -85 -15 -25 -38 -70 -52 -100 -65 -139 -59 -156 -59 150 l-1 275 83 32
c96 37 132 42 124 16z m-6131 -34 l54 -30 0 -87 -1 -87 -79 83 c-44 45 -80 88
-80 94 0 11 39 58 48 58 3 0 29 -14 58 -31z m6359 -13 c50 -36 -46 -61 -137
-35 -38 10 -52 29 -23 29 8 0 15 5 15 10 0 16 123 12 145 -4z m-1332 -72 c12
-1 32 -3 44 -3 27 -1 39 -38 53 -155 5 -43 12 -87 16 -99 6 -19 3 -19 -37 -13
-108 16 -319 60 -319 67 0 10 68 108 113 162 23 27 49 47 61 48 12 0 15 3 8 6
-6 2 -9 9 -6 15 3 5 14 2 25 -8 11 -10 29 -18 42 -20z m1685 -10 c45 -3 82 -9
82 -14 0 -5 -12 -7 -27 -4 -72 9 -243 16 -267 10 -20 -5 -26 -12 -26 -35 0
-20 -6 -30 -20 -34 -13 -3 -20 -14 -20 -31 0 -15 8 -30 20 -36 13 -7 20 -21
20 -40 0 -19 6 -30 18 -34 43 -12 171 -28 233 -30 37 0 65 -4 62 -8 -10 -18
-336 2 -374 23 -16 8 -19 21 -19 73 0 87 24 164 53 168 23 4 129 1 265 -8z
m-200 -104 c6 0 12 -4 12 -10 0 -5 -16 -10 -35 -10 -26 0 -35 4 -35 16 0 12 6
15 23 10 12 -3 28 -6 35 -6z m-2033 -10 c9 -15 -5 -90 -16 -90 -5 0 -9 23 -9
50 0 47 11 63 25 40z m1670 -33 c-1 -23 -6 -54 -12 -69 -20 -44 -56 -169 -51
-174 3 -2 13 24 23 58 11 35 28 83 38 107 21 49 11 48 150 13 43 -11 81 -22
84 -26 3 -3 6 -21 5 -40 -2 -39 -38 -304 -52 -381 -5 -27 -14 -124 -19 -214
-6 -90 -14 -167 -18 -172 -8 -7 -247 14 -328 29 -39 7 -40 9 -43 51 -4 49 34
190 104 386 25 72 48 141 50 155 10 52 -106 -272 -139 -390 -15 -55 -15 -54
-16 127 l-1 181 30 68 c51 112 63 136 102 205 21 36 38 75 38 87 0 20 23 41
45 42 6 0 10 -19 10 -43z m-7779 -24 c-4 -32 -12 -63 -19 -69 -30 -27 -223
-46 -255 -25 -11 6 -12 24 -7 74 l7 66 82 4 c44 1 107 4 140 5 l59 2 -7 -57z
m2118 27 l59 -12 -6 -66 c-7 -74 6 -66 17 11 l7 47 42 -1 c81 -1 159 -15 168
-30 5 -8 9 -24 9 -35 0 -45 52 -201 81 -244 45 -67 101 -104 146 -97 46 8 88
48 110 105 16 43 17 43 28 20 7 -12 67 -187 134 -387 67 -200 143 -416 168
-480 35 -89 46 -130 47 -176 1 -51 -2 -60 -16 -59 -15 2 -18 -6 -18 -40 1 -22
5 -60 9 -84 5 -27 5 -42 -2 -42 -6 0 -7 -16 -3 -42 16 -97 18 -93 -49 -89 -33
2 -68 8 -78 13 -22 11 -147 201 -147 222 0 21 -52 126 -62 126 -15 0 -7 -22
48 -132 l57 -111 3 -146 c5 -172 -3 -172 -56 -1 -18 58 -45 146 -62 195 -16
50 -34 106 -40 125 -13 44 -79 192 -90 205 -16 17 3 -46 37 -125 35 -82 181
-524 220 -667 l6 -23 -258 0 -258 0 -18 68 c-9 37 -37 168 -61 292 -25 124
-49 245 -55 270 -30 135 -61 1088 -35 1097 6 2 27 -13 47 -32 36 -35 51 -29
22 9 -8 11 -15 32 -15 46 0 34 -26 58 -76 71 -40 10 -52 15 -116 42 -36 16
-38 16 -38 -1 0 -9 33 -51 74 -92 l74 -75 3 -293 c2 -161 9 -359 15 -440 16
-197 22 -325 14 -311 -4 6 -18 9 -31 7 -20 -2 -27 -14 -44 -73 -12 -38 -24
-77 -27 -85 -4 -8 -9 -22 -11 -30 -3 -8 -6 3 -8 25 -1 28 -4 16 -10 -37 -11
-106 -20 -120 -72 -116 -41 3 -43 4 -63 58 -11 30 -31 78 -43 105 -13 28 -29
66 -37 85 l-14 35 6 -50 c5 -47 4 -51 -24 -67 l-29 -18 -6 38 c-14 83 -36 378
-42 542 -5 158 -13 282 -31 539 l-6 85 25 -17 c90 -59 184 42 237 253 12 47
24 91 26 98 3 9 14 12 31 8 16 -3 54 -10 87 -16z m-1239 -26 c33 -8 64 -19 69
-24 5 -5 12 -54 15 -109 9 -126 19 -142 13 -21 -3 50 0 90 5 90 4 0 40 -25 78
-55 69 -55 70 -57 93 -138 132 -462 205 -708 208 -704 7 7 -168 655 -201 745
-3 8 -1 12 5 10 23 -7 239 -195 249 -215 6 -13 16 -20 23 -18 11 4 151 -99
231 -170 13 -12 17 -31 17 -95 0 -45 -4 -80 -10 -80 -5 0 -43 51 -83 114 -41
62 -80 117 -87 121 -16 10 -22 19 90 -150 l90 -135 0 -284 c0 -261 -1 -286
-17 -295 -17 -10 -17 -10 0 -11 16 0 17 -20 17 -285 l0 -285 -725 0 -725 0 0
243 c0 198 3 247 15 263 8 10 14 28 14 39 -1 17 -2 17 -6 3 -2 -10 -9 -18 -14
-18 -12 0 -11 41 1 60 8 12 10 12 11 -5 0 -11 3 -15 5 -8 3 6 -2 28 -10 48
-14 33 -16 122 -16 686 0 608 1 648 18 653 9 3 60 10 112 17 52 6 100 14 105
17 12 8 290 20 325 14 14 -2 52 -10 85 -18z m5325 -4 c30 -11 66 -22 79 -25
13 -2 27 -8 30 -12 3 -5 13 -9 21 -9 8 0 35 -5 60 -11 25 -6 95 -21 155 -33
61 -11 121 -26 134 -33 17 -8 25 -9 28 -1 2 6 17 9 33 6 21 -3 33 -13 44 -37
9 -18 16 -40 16 -49 0 -24 19 -19 30 7 8 21 9 21 9 -6 1 -48 -38 -377 -75
-636 -19 -135 -36 -289 -37 -341 l-2 -95 73 3 c67 3 78 0 130 -30 47 -27 68
-33 120 -33 57 -1 65 -4 86 -29 l22 -29 45 20 c58 26 101 34 227 42 l102 6 0
-332 0 -333 -720 0 -720 0 2 968 c3 885 4 970 20 1005 9 20 21 37 25 37 5 0
33 -9 63 -20z m1327 -542 c-1 -454 -4 -483 -26 -268 -5 52 -14 115 -20 140 -5
25 -12 77 -16 115 -12 132 -16 160 -25 195 -4 19 -14 78 -20 130 -7 52 -16
103 -22 113 -10 20 -2 25 54 30 21 2 41 7 45 10 3 4 12 7 19 7 10 0 12 -100
11 -472z m1292 440 c19 -62 41 -193 51 -313 28 -326 35 -363 81 -396 17 -12
29 -29 29 -42 0 -20 -9 -24 -92 -41 -90 -17 -453 -45 -463 -35 -2 3 -9 99 -14
215 l-9 209 1 -215 2 -215 -195 2 c-107 1 -208 6 -225 11 l-30 9 2 139 c2 145
11 235 36 389 9 50 20 128 27 173 6 46 14 90 17 98 6 16 41 18 77 5 13 -6 54
-11 90 -12 36 -1 66 -5 66 -9 0 -4 19 -10 42 -14 23 -4 48 -12 55 -18 10 -8
13 -6 14 8 2 32 17 -26 19 -71 1 -32 3 -36 10 -20 5 11 11 32 14 48 5 19 13
27 29 27 20 1 20 2 5 11 -10 5 -18 20 -18 32 0 16 3 19 9 8 5 -8 14 -10 22 -5
7 4 31 7 52 5 37 -3 72 13 62 29 -5 7 18 5 68 -6 17 -4 27 -2 27 5 0 6 9 11
20 11 11 0 20 -4 20 -9 0 -4 12 -6 27 -3 25 5 25 6 8 13 -15 6 -11 8 17 8 33
1 38 -2 47 -31z m-3724 -603 c62 -121 165 -323 229 -450 205 -401 223 -438
261 -535 32 -81 105 -289 105 -297 0 -2 -137 -3 -304 -3 l-303 0 -6 28 c-10
50 -36 295 -52 487 -9 105 -23 249 -31 320 -37 348 -60 636 -50 660 15 41 43
3 151 -210z m-3361 -310 c4 -77 13 -214 21 -305 28 -311 40 -495 37 -582 l-3
-88 -44 0 -45 0 1 728 c2 677 3 715 15 557 7 -93 15 -233 18 -310z m-2856 217
c-3 -14 -6 -14 -16 6 -7 12 -10 27 -6 33 9 15 27 -16 22 -39z m8796 -76 c55
-8 134 -17 174 -21 57 -5 77 -11 95 -29 22 -22 35 -24 175 -31 93 -4 155 -12
159 -18 9 -14 6 -117 -12 -467 -8 -151 -17 -337 -21 -413 l-6 -137 -344 0
-344 0 0 565 c0 411 3 565 11 565 6 0 57 -6 113 -14z m1306 -576 l0 -540 -35
0 c-30 0 -37 5 -49 34 -21 49 -38 55 -21 6 l14 -40 -109 0 -108 0 -13 37 c-6
20 -33 120 -59 222 -26 102 -60 231 -75 286 -15 55 -33 132 -40 170 -8 39 -25
117 -39 175 -28 112 -31 140 -18 140 53 0 425 33 448 39 16 5 46 10 67 10 l37
1 0 -540z m-9936 485 c20 -30 48 -32 99 -6 33 17 37 17 37 2 -1 -35 -106 -641
-113 -647 -4 -4 -70 -10 -147 -12 l-140 -5 0 317 c0 237 3 316 12 316 6 0 21
9 33 20 l22 21 12 -30 c13 -30 35 -41 84 -41 47 0 67 17 67 55 0 41 11 45 34
10z m9350 -17 c7 -18 27 -94 44 -168 54 -233 69 -293 95 -380 29 -94 106 -389
114 -433 l5 -27 -196 0 -196 0 0 89 c0 49 6 174 14 277 8 104 17 266 21 359 7
203 14 286 28 303 5 6 20 12 34 12 18 0 27 -8 37 -32z m-8704 -823 c-5 -22
-15 -71 -23 -110 -11 -62 -16 -70 -37 -74 -33 -4 -242 12 -212 17 12 2 22 10
22 18 0 23 26 44 54 44 15 0 37 12 53 28 16 16 40 37 56 47 15 9 27 24 27 32
0 9 6 13 15 9 9 -3 23 3 32 14 22 25 23 23 13 -25z m-389 -173 c-7 -2 -18 1
-23 6 -8 8 -4 9 13 5 13 -4 18 -8 10 -11z"/>
<path d="M639 5080 c-122 -21 -311 -171 -415 -331 -45 -68 -49 -79 -49 -134 0
-48 5 -67 23 -89 12 -16 22 -32 22 -37 0 -5 -21 -14 -46 -22 -25 -7 -45 -17
-46 -22 0 -5 20 -20 43 -33 95 -53 121 -84 84 -98 -28 -11 -15 -29 29 -40 l44
-10 4 74 c7 110 38 130 92 59 25 -34 13 -48 -13 -16 -11 13 -20 20 -21 16 0
-4 9 -18 21 -30 21 -22 23 -66 4 -112 -7 -17 -6 -18 6 -7 11 10 16 8 26 -10
12 -22 12 -22 14 12 1 34 2 34 13 -13 9 -37 18 -52 45 -68 39 -24 48 -20 28
13 -22 34 -51 216 -43 269 4 25 15 58 25 74 l18 30 96 -5 c96 -6 97 -6 127
-40 16 -19 29 -43 30 -54 0 -15 -6 -13 -35 13 -39 34 -75 40 -95 16 -10 -12
-10 -15 0 -15 9 0 11 -13 8 -44 -5 -39 -3 -45 16 -50 26 -7 76 -6 59 1 -13 5
-19 83 -6 83 4 0 17 -10 29 -21 l23 -22 6 26 c4 14 2 34 -4 45 -6 12 -11 23
-11 26 0 9 75 -16 86 -29 7 -9 15 -10 25 -4 20 13 99 11 99 -2 0 -6 7 -8 16
-5 12 5 14 1 10 -17 -3 -15 -1 -13 6 6 12 27 55 47 106 47 12 0 22 5 22 10 0
6 6 9 13 8 7 -2 14 -26 18 -58 6 -54 6 -54 7 21 1 43 7 80 14 87 7 7 38 12 70
12 33 0 58 4 58 10 0 6 -20 25 -45 42 -46 33 -52 42 -35 53 6 4 20 25 31 47
23 44 21 84 -6 125 -42 63 -234 168 -374 204 -77 20 -187 23 -272 9z m71 -610
c0 -5 -5 -10 -11 -10 -5 0 -7 5 -4 10 3 6 8 10 11 10 2 0 4 -4 4 -10z"/>
<path d="M1071 4451 c-14 -11 -22 -25 -18 -33 3 -10 0 -15 -11 -14 -12 1 -18
-8 -20 -31 -3 -30 -1 -33 25 -33 26 0 28 3 31 47 3 58 17 76 38 49 14 -20 19
-10 8 18 -8 21 -23 20 -53 -3z"/>
<path d="M765 4340 c-3 -5 -2 -10 4 -10 5 0 13 5 16 10 3 6 2 10 -4 10 -5 0
-13 -4 -16 -10z"/>
<path d="M371 4306 c-1 -28 37 -103 55 -110 11 -4 10 2 -6 24 -11 16 -27 46
-35 67 -8 22 -14 30 -14 19z"/>
<path d="M1001 4250 c0 -14 4 -32 9 -40 8 -12 10 -12 9 5 0 11 -4 29 -9 40 -8
18 -9 18 -9 -5z"/>
<path d="M1161 4224 c0 -11 3 -14 6 -6 3 7 2 16 -1 19 -3 4 -6 -2 -5 -13z"/>
<path d="M400 4085 c-33 -19 -21 -19 21 0 19 8 27 14 19 14 -8 0 -26 -6 -40
-14z"/>
<path d="M965 4090 c3 -5 10 -10 16 -10 5 0 9 5 9 10 0 6 -7 10 -16 10 -8 0
-12 -4 -9 -10z"/>
<path d="M1210 4069 c0 -5 11 -9 25 -9 14 0 25 2 25 4 0 2 -11 6 -25 8 -14 3
-25 1 -25 -3z"/>
<path d="M336 4057 c-11 -8 -17 -19 -15 -25 2 -6 14 -1 28 13 25 27 17 34 -13
12z"/>
<path d="M905 4040 c3 -5 12 -7 20 -3 21 7 19 13 -6 13 -11 0 -18 -4 -14 -10z"/>
<path d="M424 3767 c-3 -9 -17 -18 -32 -22 -41 -9 -164 -57 -159 -61 2 -2 48
12 102 31 75 26 102 32 112 23 7 -6 16 -8 20 -4 3 3 1 6 -5 6 -7 0 -12 6 -12
14 0 21 -19 30 -26 13z"/>
<path d="M175 3665 c-25 -12 -26 -14 -5 -9 28 7 60 23 45 23 -5 0 -23 -6 -40
-14z"/>
<path d="M629 3623 c11 -21 27 -47 35 -58 16 -19 16 -19 7 5 -13 37 -45 90
-54 90 -4 0 1 -17 12 -37z"/>
<path d="M680 3534 c0 -6 7 -19 16 -30 14 -18 14 -18 3 6 -14 31 -19 36 -19
24z"/>
<path d="M792 3220 c0 -43 25 -129 27 -90 0 14 -6 48 -13 75 -13 47 -14 48
-14 15z"/>
<path d="M2180 4931 c-14 -5 -56 -10 -95 -11 l-70 -2 53 -8 c36 -5 67 -4 99 6
65 20 124 17 233 -10 52 -13 97 -22 98 -21 2 2 -27 13 -65 25 -73 23 -212 35
-253 21z"/>
<path d="M1902 4889 c-61 -30 -47 -32 28 -4 43 16 56 24 40 24 -14 1 -44 -9
-68 -20z"/>
<path d="M1754 4803 c-63 -46 -104 -84 -104 -95 0 -5 26 13 58 41 31 27 68 59
82 70 43 35 15 23 -36 -16z"/>
<path d="M2200 4766 c0 -2 7 -7 16 -10 8 -3 12 -2 9 4 -6 10 -25 14 -25 6z"/>
<path d="M1990 4740 c-6 -11 -8 -20 -6 -20 3 0 10 9 16 20 6 11 8 20 6 20 -3
0 -10 -9 -16 -20z"/>
<path d="M2741 4715 c14 -17 38 -48 53 -70 14 -22 26 -36 26 -32 0 14 -56 91
-81 112 -21 18 -21 16 2 -10z"/>
<path d="M2323 4669 c24 -30 58 -81 76 -113 44 -75 36 -84 -59 -68 -39 7 -88
12 -110 12 -36 0 -40 3 -49 33 l-9 32 -1 -31 -1 -30 -97 -11 c-54 -6 -101 -9
-105 -6 -5 2 -8 18 -8 36 0 21 -3 28 -10 21 -6 -6 -7 -25 -4 -43 l7 -33 66 6
c36 4 95 9 131 11 l65 5 -37 -36 c-21 -19 -38 -40 -38 -45 0 -5 18 9 40 32
l40 42 80 -6 c45 -4 85 -9 90 -12 6 -4 3 -19 -7 -38 -9 -18 -18 -65 -21 -107
-4 -84 19 -166 64 -220 23 -27 24 -31 10 -57 -8 -15 -26 -40 -41 -55 -27 -29
-26 -34 3 -20 107 52 130 60 162 56 l35 -3 -34 8 c-91 24 -164 113 -182 222
-18 110 9 195 78 248 28 21 28 21 3 16 -22 -5 -28 1 -54 51 -17 31 -52 80 -79
108 l-48 51 44 -56z m164 -635 c2 -6 -8 -16 -22 -22 -28 -13 -30 -10 -13 18
13 20 29 22 35 4z"/>
<path d="M1950 4657 c-7 -12 -25 -60 -40 -106 l-26 -84 -55 -17 c-30 -10 -62
-21 -71 -25 -15 -6 -18 -2 -19 21 -2 28 -2 28 -6 4 -6 -29 -19 -47 -46 -62
-19 -10 -20 -8 -14 41 8 68 1 65 -13 -6 -11 -50 -10 -58 5 -69 16 -12 14 -14
-16 -27 -58 -25 -82 -59 -85 -124 l-3 -58 9 60 c8 48 16 66 40 88 30 27 80 37
80 16 0 -16 72 -180 77 -175 2 2 -9 35 -25 72 -61 145 -63 185 -9 197 12 3 47
14 77 26 30 12 63 21 72 21 11 0 20 10 24 28 18 87 29 122 36 122 4 0 5 -7 2
-15 -4 -8 -2 -15 4 -15 9 0 27 98 20 106 -2 2 -10 -7 -18 -19z"/>
<path d="M1760 4568 c-11 -24 -19 -54 -19 -68 1 -18 3 -15 10 13 5 21 16 51
24 67 9 17 13 30 10 30 -3 0 -15 -19 -25 -42z"/>
<path d="M2833 4569 c3 -10 13 -52 22 -95 16 -72 16 -87 2 -164 -8 -47 -18
-94 -22 -105 -5 -15 -4 -17 3 -5 18 27 43 139 43 194 1 54 -22 148 -42 176 -9
13 -10 13 -6 -1z"/>
<path d="M2517 4521 c69 -18 103 -54 136 -145 17 -48 18 -49 13 -13 -6 47 -48
122 -80 143 -13 8 -41 17 -62 19 -38 4 -38 4 -7 -4z"/>
<path d="M2221 4366 c-12 -18 -21 -40 -21 -47 1 -8 7 -2 15 12 15 28 52 43 79
33 19 -7 21 7 4 24 -23 23 -55 14 -77 -22z"/>
<path d="M1785 4370 c62 -25 70 -25 25 0 -19 11 -44 19 -55 19 -11 0 3 -9 30
-19z"/>
<path d="M2250 4316 c-11 -35 -6 -97 11 -126 9 -14 3 58 -7 88 -5 17 13 52 27
52 18 0 49 -83 49 -132 0 -54 -13 -67 -41 -42 -20 18 -21 18 -8 -9 13 -28 18
-31 43 -21 26 10 22 119 -6 174 -29 57 -52 63 -68 16z"/>
<path d="M1823 4283 c4 -3 2 -12 -4 -19 -7 -9 -6 -14 2 -20 7 -4 15 -2 17 4 2
7 13 12 24 12 17 0 20 -5 16 -30 -4 -29 6 -42 14 -18 2 6 10 8 16 4 8 -4 10
-21 7 -44 -6 -40 6 -69 24 -58 18 11 13 43 -14 96 -26 52 -57 80 -89 80 -11 0
-16 -3 -13 -7z"/>
<path d="M2273 4264 c-7 -20 8 -66 23 -71 16 -5 24 34 14 63 -11 28 -28 31
-37 8z"/>
<path d="M2655 4250 c-4 -17 -5 -34 -2 -36 2 -3 7 10 11 27 8 42 0 50 -9 9z"/>
<path d="M1885 4140 c3 -19 14 -47 25 -62 11 -15 20 -32 20 -38 0 -16 27 -12
34 6 9 23 7 31 -4 14 -8 -13 -11 -13 -25 1 -8 8 -25 37 -36 65 -18 43 -19 45
-14 14z"/>
<path d="M1575 4111 c6 -38 63 -121 101 -146 42 -27 38 -11 -6 24 -46 36 -66
65 -87 119 l-14 37 6 -34z"/>
<path d="M1770 4115 c0 -16 26 -96 49 -148 18 -42 19 -49 5 -54 -29 -11 -109
8 -179 42 l-70 35 35 -29 c60 -52 151 -72 239 -55 l32 7 -24 26 c-14 14 -38
62 -55 106 -17 44 -31 76 -32 70z"/>
<path d="M1545 4020 c10 -11 20 -20 23 -20 3 0 -3 9 -13 20 -10 11 -20 20 -23
20 -3 0 3 -9 13 -20z"/>
<path d="M2165 3994 c-27 -24 -23 -25 20 -8 12 5 15 -3 15 -40 0 -37 -4 -48
-25 -62 -20 -13 -30 -14 -58 -5 -19 7 -43 21 -52 31 -18 19 -17 20 14 31 47
17 29 24 -23 9 l-45 -12 27 -23 c38 -32 87 -55 115 -55 51 0 86 82 62 148 -6
17 -16 15 -50 -14z"/>
<path d="M3630 5010 c7 -14 38 -52 69 -84 40 -42 52 -60 42 -64 -9 -3 4 -14
34 -28 27 -13 50 -22 52 -21 2 2 -25 31 -59 63 -35 33 -83 82 -107 109 -24 28
-38 39 -31 25z"/>
<path d="M3608 4863 c12 -2 32 -2 45 0 12 2 2 4 -23 4 -25 0 -35 -2 -22 -4z"/>
<path d="M3482 4821 c-22 -16 -43 -34 -46 -40 -3 -5 -30 -17 -59 -27 -140 -46
-276 -125 -313 -182 -13 -19 -2 -13 36 21 55 49 117 85 223 127 62 24 75 23
58 -8 -6 -11 -8 -22 -5 -25 8 -7 70 9 149 39 39 14 80 28 93 31 12 3 22 9 22
14 0 17 -46 9 -129 -21 -46 -17 -88 -29 -93 -28 -11 4 81 96 114 115 16 9 18
12 7 13 -9 0 -34 -13 -57 -29z"/>
<path d="M4110 4814 c0 -6 5 -15 10 -20 6 -6 14 -44 17 -85 5 -60 8 -69 16
-51 12 26 -6 116 -28 146 -8 11 -15 15 -15 10z"/>
<path d="M4127 4623 c-3 -5 20 -28 53 -51 32 -23 71 -58 86 -77 34 -45 44 -38
14 10 -21 34 -97 95 -119 95 -5 0 -14 7 -19 16 -5 9 -12 12 -15 7z"/>
<path d="M3266 4580 c-75 -70 -112 -149 -87 -189 10 -16 17 -5 19 33 3 46 39
111 83 151 23 20 38 39 36 42 -3 3 -26 -14 -51 -37z"/>
<path d="M3399 4123 c-1 -7 -2 -19 -3 -25 -1 -7 7 -12 17 -10 9 2 17 -1 16 -5
-1 -4 -1 -15 0 -23 1 -12 3 -13 10 -1 5 7 14 10 20 7 13 -9 14 -16 1 -36 -9
-13 -11 -13 -20 0 -7 11 -9 6 -9 -20 1 -19 3 -27 6 -17 6 24 23 11 23 -19 0
-19 5 -25 18 -22 29 6 31 75 4 125 -13 24 -29 46 -35 50 -20 12 -47 10 -48 -4z"/>
<path d="M3867 4111 c-45 -29 -76 -77 -40 -64 11 4 14 3 9 -5 -4 -6 -4 -46 0
-87 l7 -76 36 3 36 3 8 65 c4 36 5 80 3 98 -5 34 2 40 22 20 8 -8 12 -8 12 -1
0 11 -49 63 -59 62 -3 0 -19 -8 -34 -18z m23 -59 c0 -19 -18 -42 -32 -42 -10
0 -11 44 -1 53 13 14 33 7 33 -11z m-20 -82 c0 -33 13 -39 30 -12 8 14 10 10
8 -18 -2 -28 -8 -36 -25 -38 -16 -2 -24 3 -27 20 -12 51 -10 78 4 78 6 0 10
-13 10 -30z"/>
<path d="M3447 3935 c3 -22 11 -43 17 -47 20 -14 36 -8 36 12 0 13 -5 18 -15
14 -9 -4 -19 5 -29 28 l-15 33 6 -40z"/>
<path d="M3341 3854 c0 -11 3 -14 6 -6 3 7 2 16 -1 19 -3 4 -6 -2 -5 -13z"/>
<path d="M3350 3791 c0 -17 29 -58 46 -65 9 -3 3 10 -13 32 -15 20 -28 39 -30
41 -2 2 -3 -1 -3 -8z"/>
<path d="M3565 3720 c3 -5 13 -10 21 -10 8 0 12 5 9 10 -3 6 -13 10 -21 10 -8
0 -12 -4 -9 -10z"/>
<path d="M3668 3703 c7 -3 16 -2 19 1 4 3 -2 6 -13 5 -11 0 -14 -3 -6 -6z"/>
<path d="M3238 3564 c-38 -20 -36 -28 2 -9 17 9 30 18 30 20 0 7 -1 6 -32 -11z"/>
<path d="M3163 3520 c-40 -24 -42 -35 -5 -25 15 5 45 11 67 15 37 7 38 8 8 9
-17 0 -33 5 -35 11 -1 5 -18 1 -35 -10z"/>
<path d="M3053 3453 c-14 -5 -18 -23 -5 -23 5 0 17 7 28 15 14 11 15 14 4 14
-8 0 -21 -3 -27 -6z"/>
<path d="M3168 3353 c-31 -43 -87 -112 -125 -153 l-68 -74 69 56 c38 32 81 79
97 105 15 26 39 62 53 78 23 27 25 28 26 10 0 -12 -6 -27 -12 -34 -11 -10 -10
-14 4 -22 16 -9 17 -25 14 -162 l-4 -152 -38 -32 c-20 -18 -32 -33 -26 -33 6
0 14 5 17 10 3 6 17 10 30 10 22 0 24 5 31 70 3 39 9 70 13 70 11 0 12 174 2
195 -6 11 -14 46 -18 78 l-8 58 -57 -78z"/>
<path d="M4124 3396 c10 -16 27 -44 38 -63 11 -18 22 -33 24 -33 9 0 -48 99
-64 112 -14 11 -14 8 2 -16z"/>
<path d="M4110 3265 c14 -8 30 -14 35 -14 6 0 -1 6 -15 14 -14 8 -29 14 -35
14 -5 0 1 -6 15 -14z"/>
<path d="M4216 3241 c-3 -5 1 -11 9 -15 8 -3 15 -1 15 4 0 13 -18 22 -24 11z"/>
<path d="M3667 3163 c-4 -3 -7 -11 -7 -17 0 -6 5 -5 12 2 6 6 9 14 7 17 -3 3
-9 2 -12 -2z"/>
<path d="M4222 3110 c0 -14 4 -36 8 -50 6 -20 8 -21 8 -5 0 11 -4 34 -8 50 -7
27 -8 27 -8 5z"/>
<path d="M4242 3010 c0 -14 2 -19 5 -12 2 6 2 18 0 25 -3 6 -5 1 -5 -13z"/>
<path d="M3930 2980 c-8 -20 -23 -34 -44 -40 -29 -9 -28 -9 9 -4 22 3 45 6 50
7 6 1 9 -10 7 -25 -2 -22 1 -25 17 -21 16 4 22 -3 31 -39 6 -23 27 -99 45
-168 19 -69 48 -186 64 -260 16 -74 30 -124 31 -110 l2 25 9 -25 c6 -18 7 -10
3 25 -3 27 -12 65 -19 85 -8 19 -44 143 -80 275 -36 132 -68 246 -71 254 -2 8
-12 11 -24 8 -17 -4 -19 -1 -14 19 9 34 -1 30 -16 -6z"/>
<path d="M4251 2964 c0 -11 3 -14 6 -6 3 7 2 16 -1 19 -3 4 -6 -2 -5 -13z"/>
<path d="M3351 2954 c0 -11 3 -14 6 -6 3 7 2 16 -1 19 -3 4 -6 -2 -5 -13z"/>
<path d="M4262 2920 c0 -14 2 -19 5 -12 2 6 2 18 0 25 -3 6 -5 1 -5 -13z"/>
<path d="M3125 2920 c-3 -5 -2 -10 4 -10 5 0 13 5 16 10 3 6 2 10 -4 10 -5 0
-13 -4 -16 -10z"/>
<path d="M3201 2853 c-20 -129 -72 -342 -123 -501 -11 -35 -18 -66 -15 -68 7
-8 70 189 106 332 28 110 57 301 48 311 -2 2 -9 -31 -16 -74z"/>
<path d="M3323 2827 c-61 -290 -96 -460 -108 -537 -48 -297 -111 -483 -177
-519 -25 -15 -29 -14 -55 9 -19 18 -23 19 -13 5 21 -28 32 -35 56 -35 64 0
132 172 194 487 22 113 47 231 54 262 19 72 78 411 74 422 -2 5 -13 -37 -25
-94z"/>
<path d="M3598 2913 c6 -2 18 -2 25 0 6 3 1 5 -13 5 -14 0 -19 -2 -12 -5z"/>
<path d="M3056 2850 c-39 -44 -48 -64 -15 -34 23 21 63 74 56 74 -3 0 -21 -18
-41 -40z"/>
<path d="M4271 2874 c0 -11 3 -14 6 -6 3 7 2 16 -1 19 -3 4 -6 -2 -5 -13z"/>
<path d="M3499 2844 c-26 -31 -5 -104 23 -76 9 9 8 12 -6 12 -13 0 -17 7 -14
27 4 36 26 41 31 6 4 -28 4 -28 6 3 1 36 -21 51 -40 28z"/>
<path d="M4280 2830 c0 -20 43 -155 47 -144 1 5 -8 43 -22 84 -13 41 -24 68
-25 60z"/>
<path d="M3851 2719 c-12 -29 -24 -76 -27 -105 -9 -76 23 -277 58 -367 16 -42
20 -26 4 19 -51 144 -63 338 -28 439 26 75 22 83 -7 14z"/>
<path d="M3466 2609 c-20 -29 -21 -63 -1 -79 20 -17 33 -5 41 36 5 26 2 40 -9
51 -13 13 -16 12 -31 -8z m34 -23 c0 -13 -6 -29 -14 -35 -11 -10 -16 -8 -21 9
-7 21 9 50 26 50 5 0 9 -11 9 -24z"/>
<path d="M3420 2334 c-13 -34 -13 -47 4 -70 12 -15 17 -17 27 -6 11 10 10 12
-5 12 -14 0 -17 7 -14 33 4 40 21 42 29 2 7 -30 7 -29 8 6 1 25 -4 39 -15 43
-23 9 -24 8 -34 -20z"/>
<path d="M4142 2260 c0 -19 2 -27 5 -17 2 9 2 25 0 35 -3 9 -5 1 -5 -18z"/>
<path d="M4152 2200 c0 -14 2 -19 5 -12 2 6 2 18 0 25 -3 6 -5 1 -5 -13z"/>
<path d="M3921 2140 c0 -14 48 -112 49 -99 0 4 -11 31 -24 60 -14 30 -25 47
-25 39z"/>
<path d="M4162 2130 c0 -14 2 -19 5 -12 2 6 2 18 0 25 -3 6 -5 1 -5 -13z"/>
<path d="M4172 2040 c0 -19 2 -27 5 -17 2 9 2 25 0 35 -3 9 -5 1 -5 -18z"/>
<path d="M4181 1976 c-3 -43 41 -372 54 -402 13 -31 86 -94 108 -94 6 0 -9 13
-31 30 -64 46 -72 65 -93 227 -22 175 -36 265 -38 239z"/>
<path d="M5248 4643 c7 -3 16 -2 19 1 4 3 -2 6 -13 5 -11 0 -14 -3 -6 -6z"/>
<path d="M6028 4685 c18 -32 53 -72 46 -52 -3 9 -1 24 6 32 10 13 9 15 -12 15
-13 0 -30 6 -37 13 -11 10 -12 8 -3 -8z"/>
<path d="M7903 5014 c-59 -35 -54 -41 5 -8 56 33 58 34 46 34 -5 0 -28 -12
-51 -26z"/>
<path d="M7783 4926 c-32 -30 -56 -56 -53 -58 3 -3 32 22 65 54 76 73 66 77
-12 4z"/>
<path d="M7802 4720 c-1 -8 -5 -33 -8 -55 -5 -31 -4 -37 5 -29 7 7 11 29 8 55
-2 24 -4 37 -5 29z"/>
<path d="M8507 4723 c-4 -3 -7 -27 -7 -52 0 -53 17 -45 21 11 3 37 -2 53 -14
41z"/>
<path d="M7810 4541 c-34 -33 -49 -79 -30 -91 7 -4 24 -3 39 3 27 10 164 -8
215 -29 14 -5 17 -3 14 7 -6 17 -142 114 -181 128 -26 9 -32 7 -57 -18z m75
-12 c11 -4 38 -20 60 -34 l40 -26 -64 5 c-35 3 -77 6 -92 6 -32 0 -34 6 -19
45 10 27 17 28 75 4z"/>
<path d="M8344 4535 c-72 -37 -122 -81 -107 -95 8 -9 20 -9 50 1 21 7 82 12
135 12 66 0 98 4 102 12 2 7 -14 31 -36 54 -48 49 -73 52 -144 16z m124 -22
l25 -33 -60 0 c-33 0 -82 -3 -109 -6 l-49 -7 43 32 c81 60 112 63 150 14z"/>
<path d="M8081 4422 c-1 -33 3 -51 9 -47 12 7 12 52 0 80 -6 15 -9 6 -9 -33z"/>
<path d="M8180 4416 c0 -14 5 -28 10 -31 6 -4 10 7 10 24 0 17 -4 31 -10 31
-5 0 -10 -11 -10 -24z"/>
<path d="M8013 4390 c4 -15 2 -19 -6 -12 -17 14 -179 10 -184 -4 -5 -16 209
-25 219 -10 13 18 4 41 -16 44 -15 3 -18 0 -13 -18z"/>
<path d="M8246 4395 c-4 -12 -1 -16 14 -13 24 3 28 22 7 26 -8 2 -17 -4 -21
-13z"/>
<path d="M8298 4385 c-16 -9 -28 -19 -28 -23 0 -4 47 -7 105 -7 58 0 105 3
105 7 0 29 -140 47 -182 23z"/>
<path d="M8200 4311 c0 -12 51 -53 58 -47 7 7 -32 55 -45 56 -7 0 -13 -4 -13
-9z"/>
<path d="M8030 4285 c-25 -26 -21 -32 9 -15 20 10 36 40 22 40 -4 0 -18 -11
-31 -25z"/>
<path d="M8087 4133 c-3 -21 -8 -47 -12 -58 -7 -19 -7 -19 9 -4 20 18 35 99
19 99 -6 0 -13 -17 -16 -37z"/>
<path d="M7561 4129 c-6 -18 -9 -34 -7 -36 2 -2 9 10 15 28 6 18 9 34 7 36 -2
2 -9 -10 -15 -28z"/>
<path d="M7538 4057 c-3 -19 -2 -25 4 -19 6 6 8 18 6 28 -3 14 -5 12 -10 -9z"/>
<path d="M7880 4048 c-21 -33 -24 -95 -5 -91 6 1 15 22 20 47 6 24 13 48 18
52 10 11 9 24 -3 24 -6 0 -19 -15 -30 -32z"/>
<path d="M8326 3984 c-22 -8 -69 -17 -105 -20 -67 -5 -248 8 -288 21 -17 6
-23 3 -23 -8 0 -35 39 -42 220 -42 195 0 225 5 233 37 4 12 5 23 4 24 -1 1
-20 -5 -41 -12z"/>
<path d="M8617 3929 c-6 -75 -40 -160 -95 -241 -37 -56 -44 -68 -38 -68 11 0
99 135 123 188 27 60 45 192 26 192 -6 0 -13 -32 -16 -71z"/>
<path d="M8044 3911 c-18 -19 4 -29 74 -35 77 -7 132 3 132 23 0 9 -197 20
-206 12z"/>
<path d="M8460 3765 c-7 -9 -11 -18 -8 -20 3 -3 11 1 18 10 7 9 11 18 8 20 -3
3 -11 -1 -18 -10z"/>
<path d="M7735 3740 c8 -29 57 -114 86 -150 12 -14 -1 16 -27 65 -51 98 -71
126 -59 85z"/>
<path d="M9059 3544 c-46 -14 -56 -25 -113 -117 -10 -16 -33 -38 -52 -49 -26
-15 -34 -26 -33 -46 1 -25 2 -25 7 -5 4 12 26 38 50 58 23 20 54 57 68 81 14
24 30 44 35 44 12 0 12 -1 -6 -44 -22 -51 -8 -45 15 8 24 53 35 63 86 75 26 6
31 9 14 9 -14 0 -46 -6 -71 -14z"/>
<path d="M9140 3045 c-13 -14 -19 -25 -13 -25 12 0 48 38 41 45 -2 3 -15 -6
-28 -20z"/>
<path d="M9089 2993 c-29 -35 -41 -53 -36 -53 2 0 17 16 31 35 28 36 31 49 5
18z"/>
<path d="M9805 2639 c-40 -6 -39 -6 13 -8 51 -1 65 3 40 11 -7 2 -31 1 -53 -3z"/>
<path d="M10081 2449 c-24 -21 -42 -41 -40 -43 5 -6 27 13 63 52 40 43 30 40
-23 -9z"/>
<path d="M9455 4797 c-37 -42 -22 -51 22 -12 25 22 26 24 8 24 -11 0 -25 -5
-30 -12z"/>
<path d="M9721 4300 c-1 -26 15 -50 33 -50 5 0 2 8 -6 18 -9 9 -18 26 -21 37
-4 16 -5 15 -6 -5z"/>
<path d="M9684 4035 c-17 -59 -9 -85 23 -85 13 0 13 3 3 15 -9 10 -10 32 -5
70 3 30 4 55 1 55 -3 0 -13 -25 -22 -55z"/>
<path d="M10034 3930 c3 -14 6 -35 6 -48 0 -13 4 -20 10 -17 15 9 12 49 -6 71
-15 18 -15 18 -10 -6z"/>
<path d="M9592 3890 c0 -14 2 -19 5 -12 2 6 2 18 0 25 -3 6 -5 1 -5 -13z"/>
<path d="M9940 3885 c69 -18 69 -18 46 0 -11 8 -38 15 -60 14 l-41 -1 55 -13z"/>
<path d="M9650 3880 c0 -13 11 -13 30 0 12 8 11 10 -7 10 -13 0 -23 -4 -23
-10z"/>
<path d="M9735 3830 c23 -9 93 -14 140 -10 28 2 27 3 -10 11 -54 11 -157 11
-130 -1z"/>
<path d="M4870 3293 c0 -13 5 -23 10 -23 13 0 13 11 0 30 -8 12 -10 11 -10 -7z"/>
<path d="M5235 3276 c9 -13 28 -32 43 -42 l26 -17 -24 30 c-14 17 -33 36 -43
42 -17 11 -17 10 -2 -13z"/>
<path d="M4881 2884 c0 -11 3 -14 6 -6 3 7 2 16 -1 19 -3 4 -6 -2 -5 -13z"/>
<path d="M4851 2774 c0 -11 3 -14 6 -6 3 7 2 16 -1 19 -3 4 -6 -2 -5 -13z"/>
<path d="M4841 2734 c0 -11 3 -14 6 -6 3 7 2 16 -1 19 -3 4 -6 -2 -5 -13z"/>
<path d="M4797 2618 c-14 -35 -33 -81 -42 -103 -9 -22 -12 -35 -6 -29 14 13
84 184 78 190 -2 3 -16 -23 -30 -58z"/>
<path d="M6850 4270 c-11 -7 -5 -8 20 -4 43 8 51 14 19 14 -13 0 -31 -5 -39
-10z"/>
<path d="M6769 4210 c-68 -46 -95 -70 -81 -70 7 0 24 7 37 16 20 13 25 14 25
3 1 -8 8 0 17 16 8 17 25 38 37 47 34 28 13 21 -35 -12z"/>
<path d="M6858 4206 c-25 -13 -61 -34 -80 -46 -18 -13 -34 -24 -35 -24 -1 -1
-4 -15 -8 -31 l-6 -30 21 28 c12 15 25 27 30 27 10 0 25 -40 22 -57 -4 -17 0
-16 42 4 34 16 61 48 30 36 -11 -4 -14 5 -14 41 0 41 3 46 23 47 44 2 50 4 54
17 7 19 -28 14 -79 -12z"/>
<path d="M6470 4150 c11 -20 30 -28 30 -12 0 11 -22 32 -32 32 -5 0 -4 -9 2
-20z"/>
<path d="M6640 4120 c0 -5 5 -10 11 -10 5 0 7 5 4 10 -3 6 -8 10 -11 10 -2 0
-4 -4 -4 -10z"/>
<path d="M6730 3860 c-13 -8 -13 -10 2 -10 9 0 20 5 23 10 8 13 -5 13 -25 0z"/>
<path d="M5253 4493 c-7 -2 -13 -9 -13 -14 0 -5 11 -4 25 3 19 8 28 8 42 -3
16 -13 17 -12 4 4 -13 17 -34 20 -58 10z"/>
<path d="M5213 4385 c0 -22 2 -30 4 -17 2 12 2 30 0 40 -3 9 -5 -1 -4 -23z"/>
<path d="M5790 3910 c-9 -6 -10 -10 -3 -10 6 0 15 5 18 10 8 12 4 12 -15 0z"/>
<path d="M5010 4241 c0 -5 11 -12 25 -15 30 -8 33 -26 5 -26 -28 0 -26 -36 3
-44 39 -10 44 -7 39 24 -4 29 4 37 24 23 5 -5 -3 4 -18 20 -27 25 -78 38 -78
18z"/>
<path d="M5326 4192 c-2 -4 -1 -14 5 -22 7 -12 9 -10 9 8 0 23 -5 28 -14 14z"/>
<path d="M4802 4149 c-7 -11 -17 -32 -23 -47 l-9 -27 19 25 c20 25 20 25 36 5
15 -19 16 -18 9 15 -8 46 -17 54 -32 29z"/>
<path d="M5355 4158 c-63 -37 -73 -81 -19 -86 29 -3 30 -1 26 27 -5 34 23 55
39 30 7 -12 9 -11 9 2 0 15 -18 39 -29 39 -4 0 -15 -6 -26 -12z"/>
<path d="M5030 3967 c0 -12 10 -43 23 -67 21 -42 26 -46 85 -60 41 -10 61 -19
57 -27 -5 -16 -3 -16 29 -1 14 6 28 19 31 29 4 10 17 27 31 38 32 25 30 31
-10 31 -34 0 -168 41 -218 66 -27 14 -28 13 -28 -9z m100 -52 c14 -8 37 -14
51 -15 29 0 68 -25 57 -36 -5 -4 -16 0 -27 10 -18 16 -18 16 -14 -9 4 -18 1
-25 -11 -25 -46 0 -126 57 -111 79 8 15 25 13 55 -4z"/>
<path d="M5117 3819 c7 -7 15 -10 18 -7 3 3 -2 9 -12 12 -14 6 -15 5 -6 -5z"/>
<path d="M5130 3770 c20 -13 50 -13 50 0 0 6 -15 10 -32 10 -25 0 -29 -3 -18
-10z"/>
<path d="M5371 3384 c0 -11 3 -14 6 -6 3 7 2 16 -1 19 -3 4 -6 -2 -5 -13z"/>
<path d="M5381 3344 c0 -11 3 -14 6 -6 3 7 2 16 -1 19 -3 4 -6 -2 -5 -13z"/>
<path d="M5460 3121 c0 -5 5 -13 10 -16 6 -3 10 -2 10 4 0 5 -4 13 -10 16 -5
3 -10 2 -10 -4z"/>
<path d="M6872 3360 c0 -14 2 -19 5 -12 2 6 2 18 0 25 -3 6 -5 1 -5 -13z"/>
<path d="M6240 2471 c-6 -12 -7 -21 -1 -21 10 0 24 30 17 37 -2 3 -9 -5 -16
-16z"/>
<path d="M6159 2398 c-18 -11 -72 -54 -118 -94 -46 -41 -89 -73 -95 -71 -6 2
-21 23 -34 48 l-22 44 6 -35 c7 -43 25 -82 39 -87 6 -2 53 35 105 83 111 100
135 118 150 109 5 -3 35 -48 65 -98 30 -51 62 -101 70 -111 15 -19 15 -19 40
4 26 25 27 42 0 20 -8 -7 -21 -10 -29 -7 -14 6 -116 176 -116 195 0 20 -28 20
-61 0z"/>
<path d="M6505 2350 c-21 -23 -14 -26 15 -8 18 12 29 4 110 -77 83 -83 102
-92 80 -40 -6 13 -9 15 -9 5 -1 -8 -30 14 -68 52 -87 84 -105 94 -128 68z"/>
<path d="M5881 2344 c0 -11 3 -14 6 -6 3 7 2 16 -1 19 -3 4 -6 -2 -5 -13z"/>
<path d="M6167 2200 c31 -63 -5 -198 -63 -236 -23 -16 -26 -16 -39 2 -8 10
-17 38 -21 62 -6 41 -4 59 12 111 5 16 4 22 -3 18 -17 -11 -36 -95 -30 -133 7
-45 32 -84 53 -84 50 0 107 82 118 172 6 46 -11 109 -31 115 -8 3 -7 -6 4 -27z"/>
<path d="M6503 2188 c-68 -74 -71 -212 -5 -271 15 -14 25 -15 45 -8 35 14 50
68 46 169 -4 68 -8 84 -28 106 -30 32 -32 32 -58 4z m54 -38 c16 -49 16 -190
-1 -212 -37 -49 -86 12 -86 108 0 56 16 117 36 137 16 16 39 1 51 -33z"/>
<path d="M2088 3643 c7 -3 16 -2 19 1 4 3 -2 6 -13 5 -11 0 -14 -3 -6 -6z"/>
<path d="M9780 3090 c20 -13 33 -13 25 0 -3 6 -14 10 -23 10 -15 0 -15 -2 -2
-10z"/>
<path d="M1656 2540 c3 -14 10 -32 15 -40 7 -12 8 -11 9 6 0 11 -7 29 -16 40
-14 18 -15 18 -8 -6z"/>
<path d="M5698 1885 c-33 -23 -38 -23 -46 -8 -10 17 -13 11 -28 -52 -5 -20 -5
-20 13 0 10 12 37 34 61 49 37 25 49 36 39 36 -1 0 -19 -11 -39 -25z"/>
<path d="M5556 1594 c-4 -14 -5 -28 -3 -31 3 -2 8 8 11 23 4 14 5 28 3 31 -3
2 -8 -8 -11 -23z"/>
<path d="M5531 1504 c0 -11 3 -14 6 -6 3 7 2 16 -1 19 -3 4 -6 -2 -5 -13z"/>
<path d="M5513 1445 c-3 -9 -3 -18 -1 -21 3 -3 8 4 11 16 6 23 -1 27 -10 5z"/>
<path d="M5467 1302 c-21 -59 -60 -159 -87 -222 -57 -136 -74 -192 -29 -100
60 126 172 430 157 430 -2 0 -20 -49 -41 -108z"/>
<path d="M4943 1335 c0 -22 2 -30 4 -17 2 12 2 30 0 40 -3 9 -5 -1 -4 -23z"/>
<path d="M5786 1054 c-15 -52 -26 -98 -23 -100 2 -3 16 39 31 92 15 53 25 98
23 101 -2 2 -16 -40 -31 -93z"/>
<path d="M5202 960 c-1 -14 -5 -43 -7 -65 -5 -35 -4 -37 5 -15 6 13 9 42 7 65
-2 22 -4 29 -5 15z"/>
<path d="M5297 868 c-21 -58 -35 -115 -39 -160 -4 -61 10 -54 18 9 4 32 15 87
25 122 22 75 19 91 -4 29z"/>
<path d="M4987 844 c-4 -4 -7 -17 -7 -28 1 -19 1 -20 11 -3 11 19 8 43 -4 31z"/>
<path d="M5446 788 c-14 -18 -23 -35 -20 -38 7 -6 54 47 54 61 0 15 -7 10 -34
-23z"/>
<path d="M5650 769 l-35 -31 32 22 c29 19 50 40 41 40 -2 0 -19 -14 -38 -31z"/>
<path d="M5073 624 c-26 -26 -25 -46 2 -24 18 15 39 50 30 50 -3 0 -17 -12
-32 -26z"/>
<path d="M9130 2240 c-11 -8 -7 -10 18 -8 17 1 32 6 32 10 0 11 -32 10 -50 -2z"/>
<path d="M3520 1661 c0 -6 19 -56 41 -109 23 -53 52 -126 64 -162 43 -120 126
-334 144 -369 11 -20 31 -66 47 -104 15 -37 29 -65 31 -63 7 6 -66 203 -92
251 -12 22 -30 65 -40 95 -10 30 -26 73 -35 95 -10 22 -46 112 -80 200 -59
151 -80 196 -80 166z"/>
<path d="M2214 1710 c17 -134 29 -214 33 -204 5 16 -24 244 -32 252 -4 4 -4
-18 -1 -48z"/>
<path d="M2330 1543 c29 -95 78 -212 132 -313 70 -134 80 -137 15 -5 -54 109
-147 332 -147 353 0 6 -4 13 -9 16 -5 4 -1 -20 9 -51z"/>
<path d="M2691 1526 c12 -20 25 -39 30 -42 5 -3 0 11 -12 30 -12 20 -25 39
-30 42 -5 3 0 -11 12 -30z"/>
<path d="M2250 1468 c0 -23 41 -262 46 -267 8 -9 3 35 -17 153 -19 112 -29
152 -29 114z"/>
<path d="M2312 1110 c0 -14 2 -19 5 -12 2 6 2 18 0 25 -3 6 -5 1 -5 -13z"/>
<path d="M2606 1012 c3 -18 16 -65 29 -105 40 -127 40 -133 8 -146 -28 -11
-28 -11 -2 -6 29 5 41 -4 58 -50 l11 -30 -6 35 c-9 54 -60 230 -83 285 -17 39
-20 43 -15 17z"/>
<path d="M2341 964 c0 -11 3 -14 6 -6 3 7 2 16 -1 19 -3 4 -6 -2 -5 -13z"/>
<path d="M2351 924 c0 -11 3 -14 6 -6 3 7 2 16 -1 19 -3 4 -6 -2 -5 -13z"/>
<path d="M2360 895 c0 -20 34 -115 42 -115 4 0 -2 26 -13 58 -22 58 -29 72
-29 57z"/>
<path d="M2420 730 c0 -6 7 -13 15 -17 24 -9 27 1 5 15 -13 8 -20 8 -20 2z"/>
<path d="M2730 588 c0 -9 5 -20 11 -23 17 -11 18 -2 3 19 -12 17 -14 17 -14 4z"/>
<path d="M9730 1843 c0 -5 20 -8 44 -8 24 0 39 3 33 7 -16 10 -77 10 -77 1z"/>
<path d="M9649 1688 c-2 -13 -1 -59 2 -103 l5 -80 2 103 c2 98 -2 127 -9 80z"/>
<path d="M9932 510 c3 -8 11 -39 18 -67 8 -29 17 -53 21 -53 8 0 -26 119 -37
129 -4 3 -5 -1 -2 -9z"/>
</g>
</svg>
