<?xml version="1.0" standalone="no"?>
<!DOCTYPE svg PUBLIC "-//W3C//DTD SVG 20010904//EN"
 "http://www.w3.org/TR/2001/REC-SVG-20010904/DTD/svg10.dtd">
<svg version="1.0" xmlns="http://www.w3.org/2000/svg"
 width="500.000000pt" height="500.000000pt" viewBox="0 0 500.000000 500.000000"
 preserveAspectRatio="xMidYMid meet">

<g transform="translate(0.000000,500.000000) scale(0.100000,-0.100000)"
fill="#000000" stroke="none">
<path d="M2679 3365 c-15 -8 -97 -96 -184 -195 l-158 -181 22 -29 c11 -16 21
-34 21 -39 0 -12 -33 -31 -53 -31 -8 0 -70 49 -138 110 -68 60 -129 110 -135
110 -6 0 -27 -11 -47 -24 -37 -25 -47 -24 -47 4 0 15 -10 14 -87 -11 -49 -15
-149 -47 -223 -71 -74 -23 -145 -52 -158 -63 -24 -21 -24 -24 -17 -118 l7 -97
33 0 c25 0 35 -5 40 -21 9 -28 4 -32 -64 -35 -51 -2 -105 -19 -197 -60 -8 -4
-11 19 -12 73 0 61 -5 90 -24 133 -31 68 -112 146 -189 183 -199 94 -528 40
-799 -130 -55 -35 -120 -91 -120 -104 0 -4 43 -80 96 -169 103 -172 95 -165
160 -145 18 5 24 -1 41 -42 46 -109 281 -650 294 -676 11 -25 18 -28 43 -24
61 10 290 86 315 105 34 25 37 64 12 157 -12 41 -21 85 -21 98 0 19 6 15 41
-26 105 -123 274 -139 420 -42 59 40 69 36 69 -28 0 -21 6 -40 13 -43 7 -2 71
4 143 15 122 18 189 39 206 65 4 6 8 50 8 99 0 48 3 87 6 87 3 0 128 -61 277
-136 l272 -136 35 18 35 19 3 131 3 132 37 7 c20 3 61 17 91 31 30 13 56 23
57 21 2 -2 -1 -31 -7 -66 -6 -34 -9 -64 -7 -66 2 -2 68 -16 147 -31 135 -24
175 -26 228 -9 19 6 25 1 45 -39 21 -44 24 -46 55 -40 30 6 33 4 33 -19 0 -14
4 -28 9 -31 21 -13 349 -66 378 -61 50 9 65 30 57 81 -6 41 -5 43 22 49 16 3
43 10 61 14 18 5 34 7 36 4 3 -2 2 -32 0 -67 l-6 -63 124 -19 124 -19 5 -55 5
-54 124 -39 c123 -39 124 -39 162 -21 29 13 42 26 54 58 58 157 325 982 321
992 -7 18 -310 88 -354 81 -29 -5 -39 -2 -58 18 -13 14 -32 25 -43 25 -11 0
-100 19 -198 41 -175 41 -177 41 -210 24 l-33 -18 0 -108 c0 -122 8 -111 -84
-123 -22 -3 -63 -17 -90 -30 -28 -14 -54 -22 -58 -18 -3 4 -18 86 -33 182 -14
96 -28 183 -31 193 -5 15 -20 17 -140 17 -114 0 -141 -3 -173 -20 -29 -14 -68
-21 -161 -25 -157 -8 -190 -23 -190 -88 0 -47 -14 -50 -68 -13 -29 19 -82 42
-122 52 -38 10 -69 23 -67 29 2 5 48 33 102 62 55 28 104 58 109 66 7 11 -11
45 -67 131 -42 64 -83 116 -89 116 -7 -1 -25 -7 -39 -15z m80 -154 l40 -60
-128 -65 c-102 -52 -131 -63 -140 -53 -8 10 6 33 55 93 60 72 125 144 130 144
1 0 21 -27 43 -59z m766 -246 c3 -16 16 -102 29 -190 l24 -160 -23 -35 c-38
-56 -64 -122 -71 -182 -12 -106 43 -223 131 -276 50 -30 60 -62 20 -62 -52 0
-177 23 -181 34 -2 6 -15 87 -29 180 -13 93 -26 171 -29 173 -2 2 -19 -34 -37
-80 -19 -47 -38 -86 -43 -88 -5 -2 -32 47 -60 108 -28 62 -54 113 -57 113 -3
0 -16 -63 -29 -140 -23 -139 -23 -140 -49 -140 -30 1 -159 25 -165 31 -3 2 2
40 9 83 13 71 18 83 56 122 l43 44 -27 28 c-15 15 -27 39 -27 53 0 13 14 100
30 194 17 93 30 171 30 172 0 2 45 3 100 3 115 0 99 19 129 -155 10 -60 21
-103 24 -95 3 8 16 69 28 135 32 175 26 166 104 163 64 -2 65 -3 70 -33z
m-1640 -100 c4 -69 10 -125 14 -125 3 1 46 57 95 126 50 68 93 123 97 122 4
-2 45 -39 91 -84 l85 -81 -20 -24 c-17 -22 -73 -82 -195 -210 l-43 -46 119
-47 c94 -36 126 -54 145 -79 64 -82 112 -116 206 -144 34 -10 62 -21 62 -26
-1 -4 -1 -41 -1 -82 l0 -76 -305 156 c-167 85 -306 155 -309 155 -3 0 -7 -73
-8 -162 l-3 -162 -35 -7 c-19 -4 -53 -9 -75 -11 l-40 -3 -7 60 c-6 51 -3 69
20 125 46 116 30 263 -38 335 -15 16 -22 45 -30 135 -5 63 -10 125 -10 138 0
20 -3 22 -40 16 -40 -7 -41 -6 -38 24 2 30 6 33 73 52 38 12 88 27 110 35 75
25 72 29 80 -110z m-949 94 c117 -22 214 -90 252 -178 8 -20 15 -64 15 -98 -1
-109 -83 -248 -196 -328 -33 -23 -56 -48 -57 -59 0 -10 21 -99 46 -198 25 -99
43 -185 41 -191 -6 -16 -148 -60 -159 -49 -4 4 -83 177 -174 383 -91 206 -169
378 -174 383 -6 6 -23 3 -46 -7 -19 -10 -39 -15 -44 -12 -4 3 -34 49 -65 102
-65 111 -67 101 37 154 177 90 370 126 524 98z m1803 -65 c59 -17 135 -78 123
-99 -4 -7 -59 -68 -122 -135 -63 -68 -116 -126 -118 -131 -5 -11 67 1 105 18
18 8 44 26 58 39 l27 25 65 -57 64 -57 -28 -29 c-61 -64 -223 -128 -324 -128
-53 0 -153 33 -194 64 -101 77 -126 250 -53 360 76 116 252 173 397 130z
m1433 -29 c67 -14 123 -27 125 -28 1 -2 22 -99 45 -215 23 -117 45 -212 48
-212 3 0 20 64 39 143 51 215 60 239 85 233 12 -2 56 -12 99 -21 42 -9 77 -20
77 -25 0 -9 -116 -363 -217 -657 -85 -250 -74 -236 -170 -206 l-53 17 -1 160
c-1 89 -4 208 -8 266 l-6 105 -35 -193 c-18 -106 -37 -197 -40 -203 -5 -6 -30
-6 -78 2 l-72 12 0 54 c0 50 4 59 41 101 23 26 55 76 72 111 25 54 31 77 31
140 0 68 -3 83 -33 139 -19 34 -38 62 -44 62 -6 0 -8 29 -4 79 l5 80 -29 6
c-25 6 -29 11 -29 41 0 41 -4 41 152 9z m-203 -225 c140 -71 150 -265 21 -399
-100 -102 -258 -123 -349 -45 -57 49 -81 100 -81 171 0 203 237 361 409 273z
m-1746 -42 c4 -28 4 -54 2 -56 -8 -8 -80 23 -80 35 0 14 52 73 64 73 4 0 11
-23 14 -52z m-607 -11 c42 -22 89 -77 104 -122 7 -20 10 -65 8 -98 -10 -162
-149 -297 -305 -297 -143 0 -232 86 -233 226 0 81 23 144 75 202 96 106 246
145 351 89z"/>
<path d="M874 2721 c-48 -12 -54 -18 -44 -49 9 -29 68 -225 76 -255 5 -16 8
-16 35 4 94 67 132 147 107 224 -20 60 -99 95 -174 76z m80 -72 c25 -12 36
-35 36 -80 0 -33 -34 -78 -49 -64 -9 10 -41 121 -41 144 0 14 22 14 54 0z"/>
<path d="M2513 2771 c-47 -30 -67 -66 -66 -121 1 -48 25 -105 50 -114 7 -3 54
41 108 102 94 106 94 107 75 126 -29 30 -125 33 -167 7z m99 -54 c-3 -10 -27
-42 -53 -70 -53 -57 -69 -55 -69 11 0 48 38 83 89 81 32 -2 37 -6 33 -22z"/>
<path d="M3764 2591 c-65 -40 -82 -106 -44 -168 25 -42 68 -63 126 -63 41 0
51 5 85 39 35 34 39 44 39 87 l0 49 -31 -38 c-24 -30 -37 -37 -65 -37 -74 0
-112 86 -58 129 l27 21 -24 0 c-13 0 -38 -9 -55 -19z"/>
<path d="M1425 2538 c-41 -22 -64 -51 -70 -87 -22 -129 143 -205 232 -107 29
31 33 43 33 88 l0 53 -20 -33 c-34 -55 -97 -65 -140 -22 -26 26 -25 68 2 97
20 22 20 23 2 23 -10 0 -28 -6 -39 -12z"/>
<path d="M4510 1800 c-13 -13 -19 -32 -18 -52 l1 -33 4 32 c3 20 14 41 30 53
14 11 21 20 14 20 -6 0 -20 -9 -31 -20z"/>
<path d="M4605 1795 c30 -29 32 -68 5 -95 -11 -11 -16 -20 -11 -20 15 0 41 42
41 66 0 22 -35 74 -50 74 -5 0 2 -11 15 -25z"/>
<path d="M4555 1783 c30 -7 41 -21 22 -29 -9 -3 -14 -10 -11 -16 3 -5 13 0 21
11 18 27 9 41 -25 40 -21 -1 -22 -2 -7 -6z"/>
<path d="M4500 1706 c0 -2 8 -10 18 -17 15 -13 16 -12 3 4 -13 16 -21 21 -21
13z"/>
</g>
</svg>
